<?xml version="1.0" encoding="UTF-8" standalone="no"?>
<!-- Created with Inkscape (http://www.inkscape.org/) -->

<svg
   xmlns:dc="http://purl.org/dc/elements/1.1/"
   xmlns:cc="http://creativecommons.org/ns#"
   xmlns:rdf="http://www.w3.org/1999/02/22-rdf-syntax-ns#"
   xmlns:svg="http://www.w3.org/2000/svg"
   xmlns="http://www.w3.org/2000/svg"
   xmlns:sodipodi="http://sodipodi.sourceforge.net/DTD/sodipodi-0.dtd"
   xmlns:inkscape="http://www.inkscape.org/namespaces/inkscape"
   width="227.09421mm"
   height="89.876518mm"
   viewBox="0 0 227.09421 89.876518"
   version="1.1"
   id="svg8"
   inkscape:version="0.92.2 (unknown)"
   sodipodi:docname="airship2.svg">
  <defs
     id="defs2">
    <inkscape:path-effect
       effect="mirror_symmetry"
       start_point="32.821698,202.57554"
       end_point="32.821698,194.37345"
       center_point="32.821698,198.47449"
       id="path-effect825"
       is_visible="true"
       mode="free"
       discard_orig_path="false"
       fuse_paths="false"
       oposite_fuse="false" />
    <inkscape:path-effect
       effect="mirror_symmetry"
       start_point="32.964279,187.88108"
       end_point="32.964279,209.06833"
       center_point="32.964279,198.47471"
       id="path-effect822"
       is_visible="true"
       mode="free"
       discard_orig_path="false"
       fuse_paths="false"
       oposite_fuse="false" />
    <inkscape:path-effect
       effect="mirror_symmetry"
       start_point="32.964274,190.52037"
       end_point="32.964274,209.06833"
       center_point="32.964274,199.79435"
       id="path-effect819"
       is_visible="true"
       mode="free"
       discard_orig_path="false"
       fuse_paths="false"
       oposite_fuse="false" />
  </defs>
  <sodipodi:namedview
     id="base"
     pagecolor="#ffffff"
     bordercolor="#666666"
     borderopacity="1.0"
     inkscape:pageopacity="0.0"
     inkscape:pageshadow="2"
     inkscape:zoom="0.24748738"
     inkscape:cx="924.15917"
     inkscape:cy="-160.57231"
     inkscape:document-units="mm"
     inkscape:current-layer="layer1"
     showgrid="false"
     inkscape:snap-global="true"
     inkscape:window-width="1600"
     inkscape:window-height="876"
     inkscape:window-x="0"
     inkscape:window-y="24"
     inkscape:window-maximized="1"
     showguides="false"
     fit-margin-top="0"
     fit-margin-left="0"
     fit-margin-right="0"
     fit-margin-bottom="0" />
  <metadata
     id="metadata5">
    <rdf:RDF>
      <cc:Work
         rdf:about="">
        <dc:format>image/svg+xml</dc:format>
        <dc:type
           rdf:resource="http://purl.org/dc/dcmitype/StillImage" />
        <dc:title></dc:title>
      </cc:Work>
    </rdf:RDF>
  </metadata>
  <g
     inkscape:label="Layer 1"
     inkscape:groupmode="layer"
     id="layer1"
     transform="translate(-1.0953604,-23.973672)">
    <g
       id="g3251"
       transform="translate(-59.868374,-14.967093)">
      <path
         sodipodi:nodetypes="cccccccccccccc"
         inkscape:connector-curvature="0"
         id="path864"
         d="m 261.05861,83.87903 c 0,6.41852 -13.64091,15.01292 -13.64091,15.01292 -15.9856,11.94122 -30.71045,14.31468 -30.71045,14.31468 h -55.03462 -55.03464 c 0,0 -14.724829,-2.37346 -30.710449,-14.31468 0,0 -13.64089,-8.5944 -13.64089,-15.01292 m 0,0 c 0,-6.41853 13.64089,-15.012931 13.64089,-15.012931 15.98562,-11.94129 30.710449,-14.31468 30.710449,-14.31468 h 55.03464 55.03462 c 0,0 14.72485,2.37339 30.71045,14.31468 0,0 13.64091,8.594401 13.64091,15.012931"
         style="fill:#decd87;fill-opacity:1;fill-rule:evenodd;stroke:#000000;stroke-width:2.64583325;stroke-linecap:butt;stroke-linejoin:miter;stroke-miterlimit:4;stroke-dasharray:none;stroke-opacity:1" />
      <path
         inkscape:connector-curvature="0"
         id="path1506"
         d="m 261.34672,84.10798 c 0.011,-0.13203 0.0186,-0.26346 0.0186,-0.39377 0,-0.0759 -0.004,-0.15239 -0.007,-0.22893 l -0.35295,0.38551 c 0.11679,0.0814 0.21648,0.14897 0.34158,0.23719 z m -198.735148,-0.007 0.10541,-0.11472 0.0129,0.0403 c 0.16256,-0.11417 0.30647,-0.213959 0.45371,-0.31574 l -0.0548,-0.17415 3.16259,-3.45199 0.37209,1.18081 c 0.152,-0.10849 0.303,-0.21186 0.45474,-0.31884 l -0.41394,-1.31207 3.16208,-3.45095 0.75759,2.40244 c 0.15372,-0.0987 0.30771,-0.1984 0.46095,-0.29559 l -0.80616,-2.556949 3.16259,-3.451991 1.21285,3.84731 c 0.15774,-0.0908 0.31327,-0.17743 0.47027,-0.26665 l -1.27124,-4.03024 3.16312,-3.45147 1.40713,4.46278 -2.20141,2.40243 c 0.47749,-0.26324 0.95006,-0.51717 1.41954,-0.76584 l 0.96584,-1.05368 0.14935,0.47387 c 0.15875,-0.0815 0.31928,-0.16567 0.47697,-0.24546 l -0.21395,-0.67903 3.16209,-3.45095 0.74465,2.36161 c 0.16224,-0.0735 0.32461,-0.14744 0.48524,-0.21911 l -0.81751,-2.59261 3.16312,-3.45146 1.40817,4.46536 -0.003,0.003 c 0.37579,-0.14806 0.74512,-0.291 1.10794,-0.4284 l 2.65255,-2.89492 0.5519,1.75132 c 0.17095,-0.0571 0.33684,-0.11099 0.50334,-0.16537 l -0.64233,-2.03656 3.1631,-3.45251 1.36736,4.33514 c 0.4126,-0.10985 0.80166,-0.21185 1.15084,-0.29766 l 2.647893,-2.88974 0.733825,2.3275 h 0.55499 l -0.8759,-2.77812 3.16156,-3.45044 1.40713,4.46278 -1.61798,1.76578 h 0.71839 l 1.08365,-1.18287 0.37309,1.18287 h 0.55501 l -0.51522,-1.63349 3.16312,-3.45198 1.40817,4.46536 -0.56843,0.62011 h 0.71519 l 0.0362,-0.0393 0.0124,0.0393 h 0.55295 l -0.15401,-0.48834 3.16262,-3.45147 1.2428,3.93981 h 0.55502 l -1.38441,-4.39094 3.16156,-3.44992 1.40766,4.46484 -3.09335,3.37602 h 0.71829 l 2.55903,-2.79311 0.88056,2.79311 h 0.55501 l -1.02267,-3.24373 3.1631,-3.45198 1.40716,4.46329 -2.04536,2.23242 h 0.71779 l 1.51153,-1.64951 0.52039,1.64951 h 0.55242 l -0.66146,-2.09858 3.16259,-3.45198 1.40819,4.46536 -0.99425,1.0852 h 0.71573 l 0.46196,-0.50436 0.15917,0.50436 h 0.55502 l -0.30128,-0.95498 3.16105,-3.45043 1.38957,4.40541 h 0.79169 l 2.9869,-3.26026 1.02783,3.26026 h 0.55242 l -1.16943,-3.70881 3.16312,-3.45199 1.40767,4.46381 -2.47119,2.69699 h 0.71676 l 1.93786,-2.11511 0.66715,2.11511 h 0.55501 l -0.80875,-2.56573 3.16106,-3.44992 1.40819,4.46536 -1.4206,1.55029 h 0.71625 l 0.88779,-0.96893 0.3054,0.96893 h 0.55502 l -0.44751,-1.41955 3.16312,-3.45198 1.40766,4.46432 -0.37312,0.40721 h 1.05422 l -0.0863,-0.27336 3.16312,-3.45199 1.17459,3.72535 h 0.55501 l -1.31672,-4.17597 3.16262,-3.45147 1.40766,4.46381 -2.89904,3.16363 h 0.71776 l 2.36471,-2.58123 0.81391,2.58123 h 0.55399 l -0.95602,-3.03082 3.16312,-3.45198 1.40817,4.46536 -1.84846,2.01744 h 0.71623 l 1.31569,-1.43608 0.45268,1.43608 h 0.55398 l -0.59481,-1.88619 3.16209,-3.45095 1.40819,4.46485 -0.79944,0.87229 h 0.71726 l 0.26562,-0.2899 0.0915,0.2899 h 0.55552 l -0.23357,-0.74052 3.16209,-3.45147 1.32188,4.19199 h 1.05212 l 2.79209,-3.04736 0.96118,3.04736 h 0.55396 l -1.10276,-3.49694 3.16209,-3.45095 1.40817,4.46484 -2.27479,2.48305 h 0.71726 l 1.74099,-1.90014 0.59944,1.90014 h 0.55501 l -0.74104,-2.35076 3.16259,-3.45198 1.40716,4.46329 -1.22732,1.33945 h 0.71829 l 0.69299,-0.75654 0.23874,0.75654 h 0.55295 l -0.38034,-1.20561 3.1631,-3.45198 1.40819,4.46536 -0.17621,0.19223 h 0.79168 l -0.0196,-0.062 3.16156,-3.45043 1.10741,3.51244 h 0.55502 l -1.24955,-3.96306 3.16312,-3.45199 1.40767,4.46536 -2.70217,2.94969 h 0.71779 l 2.16834,-2.36678 0.74621,2.36678 h 0.55295 l -0.88781,-2.81584 3.16312,-3.45199 1.40713,4.46278 -1.65415,1.80505 h 0.71829 l 1.11985,-1.22214 0.3855,1.22214 h 0.55449 l -0.5271,-1.67276 3.16155,-3.45044 1.40767,4.46536 -0.60254,0.65784 h 0.7152 l 0.0708,-0.077 0.0243,0.077 h 0.55501 l -0.16642,-0.52761 3.16312,-3.45199 1.25471,3.9796 h 0.55242 l -1.39578,-4.42815 3.16312,-3.45198 1.40819,4.46484 -3.12954,3.41529 h 0.71778 l 2.5952,-2.83238 0.95808,3.03909 c 0.18579,0.0393 0.36187,0.0752 0.59531,0.12816 l -1.14048,-3.61787 3.16155,-3.44992 1.40714,4.46278 -2.5745,2.80965 c 0.19084,0.0465 0.37409,0.0914 0.58496,0.14521 l 2.17353,-2.37195 1.03195,3.27422 c 0.19974,0.0613 0.40884,0.12764 0.61651,0.19327 l -1.23558,-3.91863 3.16259,-3.45147 1.40819,4.46536 -2.81429,3.07114 c 0.17984,0.0582 0.36465,0.11895 0.54983,0.18035 l 2.4474,-2.67064 1.26039,3.99665 c 0.31203,0.11966 0.63164,0.24569 0.9529,0.37311 l 2.95331,-3.22306 1.40716,4.46329 -0.40257,0.43925 c 0.16947,0.0765 0.33631,0.1509 0.50747,0.22944 l 0.0791,-0.0863 0.045,0.1416 c 0.21442,0.0988 0.43416,0.205 0.65114,0.30696 l -0.28318,-0.89866 3.16156,-3.45043 1.40816,4.46536 -1.2583,1.37304 c 0.16187,0.0832 0.32279,0.16572 0.48575,0.25063 l 0.95549,-1.04283 0.58809,1.865 c 0.22304,0.12141 0.44653,0.24432 0.67127,0.36897 l -0.84646,-2.68459 2.49029,-2.71818 c -0.15166,-0.10631 -0.29961,-0.20977 -0.43614,-0.30386 l -2.23708,2.4412 -1.40819,-4.46588 0.29353,-0.32039 c -0.146,-0.10295 -0.29149,-0.20402 -0.43717,-0.30541 l -0.0398,0.0434 -0.0284,-0.091 c -0.23704,-0.16464 -0.4744,-0.33091 -0.71054,-0.49144 l 0.32557,1.03301 -3.16159,3.45043 -1.40713,-4.46277 1.60094,-1.74718 c -0.15327,-0.0962 -0.30517,-0.18973 -0.45786,-0.28422 l -1.32704,1.44849 -0.87178,-2.76418 c -0.22638,-0.13091 -0.4518,-0.25984 -0.67646,-0.38705 l 1.13533,3.60133 -3.1631,3.4525 -1.40769,-4.46536 2.73267,-2.98225 c -0.15832,-0.0877 -0.31755,-0.17716 -0.47492,-0.26303 l -2.44118,2.66444 -1.40819,-4.46536 0.11059,-0.12041 c -0.27805,-0.13429 -0.55165,-0.2627 -0.82529,-0.39119 l 0.11938,0.37775 -3.16208,3.45147 -1.40767,-4.46277 0.86818,-0.94775 c -0.17428,-0.0719 -0.3493,-0.14501 -0.52091,-0.21446 l -0.5307,0.5793 -0.28475,-0.90279 c -0.21241,-0.0833 -0.42529,-0.16711 -0.63304,-0.2465 l 0.50438,1.60042 -3.16159,3.45044 -1.40817,-4.46536 1.41386,-1.54306 c -0.1846,-0.0628 -0.36759,-0.12457 -0.54674,-0.18397 l -1.05005,1.14618 -0.51935,-1.64744 c -0.21788,-0.0666 -0.40452,-0.11832 -0.61135,-0.17932 l 0.71779,2.27687 -3.16309,3.4525 -1.40819,-4.46536 1.70376,-1.85984 c -0.20937,-0.0535 -0.39643,-0.0997 -0.58394,-0.14521 l -1.30328,1.42214 -0.57878,-1.83607 c -0.10253,-0.0185 -0.31779,-0.0599 -0.31779,-0.0599 h -0.25461 l 0.73949,2.34508 -3.16259,3.45146 -1.40767,-4.46277 1.22214,-1.33377 h -0.71776 l -0.68784,0.75086 -0.23667,-0.75086 h -0.55552 l 0.37878,1.20199 -3.16156,3.45044 -1.40816,-4.46536 0.17155,-0.18707 h -0.78496 l 0.0176,0.0563 -3.16313,3.45198 -1.10638,-3.50831 h -0.55295 l 1.24799,3.95738 -3.16259,3.45199 -1.40817,-4.46536 2.69698,-2.94401 h -0.71726 l -2.16371,2.36109 -0.74414,-2.36109 h -0.55552 l 0.88678,2.81171 -3.16156,3.45044 -1.40716,-4.46278 1.64848,-1.79937 h -0.71778 l -1.11467,1.21646 -0.38343,-1.21646 h -0.55449 l 0.52554,1.66656 -3.16362,3.45251 -1.40766,-4.46536 0.59891,-0.65371 h -0.7157 l -0.0667,0.0729 -0.0227,-0.0729 h -0.55345 l 0.16483,0.52193 -3.16259,3.45147 -1.25315,-3.9734 h -0.55501 l 1.39475,4.42402 -3.16156,3.45095 -1.40819,-4.46484 3.12489,-3.41013 h -0.71832 l -2.59003,2.82722 -0.89191,-2.82722 h -0.55399 l 1.03354,3.27732 -3.16365,3.45198 -1.40766,-4.46484 2.07481,-2.26446 h -0.71572 l -1.54255,1.68362 -0.5307,-1.68362 h -0.55296 l 0.67234,2.13268 -3.16262,3.45147 -1.40817,-4.46536 1.02527,-1.11879 h -0.71729 l -0.49144,0.5364 -0.16899,-0.5364 h -0.55552 l 0.3111,0.98702 -3.16156,3.45095 -1.39941,-4.43797 h -0.74982 l -3.0179,3.29334 -1.03817,-3.29334 h -0.55398 l 1.18081,3.74292 -3.16259,3.45147 -1.40767,-4.46433 2.50114,-2.73006 h -0.71573 l -1.96887,2.1487 -0.67746,-2.1487 h -0.55502 l 0.8196,2.59932 -3.16312,3.45199 -1.40819,-4.46536 1.45314,-1.58595 h -0.71726 l -0.91932,1.00355 -0.31626,-1.00355 h -0.55295 l 0.45786,1.45262 -3.16312,3.45199 -1.40766,-4.46381 0.4041,-0.4408 h -1.0976 l 0.0972,0.30851 -3.16156,3.44992 -1.18496,-3.75843 h -0.55552 l 1.32757,4.20956 -3.16312,3.45199 -1.40816,-4.46485 2.92901,-3.1967 h -0.71519 l -2.39675,2.61586 -0.82476,-2.61586 h -0.55296 l 0.96637,3.06441 -3.16312,3.45199 -1.40819,-4.46485 1.87946,-2.05155 h -0.71726 l -1.34564,1.46864 -0.46302,-1.46864 h -0.55502 l 0.60513,1.91926 -3.16156,3.44992 -1.40716,-4.46329 0.82995,-0.90589 h -0.71779 l -0.29612,0.32298 -0.10179,-0.32298 h -0.55501 l 0.24391,0.77411 -3.16312,3.45199 -1.33273,-4.2261 h -1.00975 l -2.82308,3.08095 -0.97153,-3.08095 h -0.55501 l 1.11363,3.53157 -3.16156,3.44991 -1.40766,-4.46484 2.30579,-2.51664 h -0.71779 l -1.77197,1.93373 -0.60978,-1.93373 h -0.55502 l 0.75189,2.38435 -3.16309,3.45198 -1.40716,-4.46329 1.2578,-1.37304 h -0.71778 l -0.72398,0.79013 -0.24083,-0.76326 c -0.0767,0.013 -0.18103,0.0289 -0.52191,0.0982 l 0.35139,1.11414 -3.16312,3.45199 -1.12654,-3.5724 c -0.16804,0.0486 -0.33256,0.0959 -0.50851,0.14831 l 1.22217,3.8747 -3.161565,3.44992 -1.407693,-4.46484 2.339398,-2.55333 c -0.32843,0.10355 -0.66643,0.21248 -1.016485,0.32866 l -1.506353,1.64383 -0.31832,-1.01028 c -0.1655,0.0597 -0.32914,0.11802 -0.49818,0.18035 l 0.40359,1.28054 -3.16309,3.45199 -1.01701,-3.22616 c -0.16171,0.0692 -0.32305,0.13798 -0.48678,0.20929 l 1.09294,3.46594 -3.16312,3.45198 -1.40816,-4.46536 1.37459,-1.50016 c -0.42191,0.19785 -0.84876,0.4027 -1.28106,0.61443 l -0.2775,0.30282 -0.0455,-0.14417 c -0.16015,0.0793 -0.31861,0.15648 -0.48008,0.23771 l 0.11266,0.35708 -3.16209,3.45095 -0.58756,-1.86397 c -0.15703,0.0888 -0.31287,0.17453 -0.47078,0.2651 l 0.64598,2.04897 -3.16261,3.45147 -1.05109,-3.33261 c -0.15369,0.0984 -0.30675,0.19447 -0.46095,0.29456 l 1.09966,3.48816 -3.16259,3.45095 -1.40716,-4.46278 0.28008,-0.30592 c -0.49006,0.35018 -0.98147,0.70929 -1.47431,1.07745 0,0 -0.21542,0.13658 -0.57155,0.37259 l -1.99316,2.17506 -0.20309,-0.64441 c -0.15095,0.10952 -0.29231,0.20983 -0.45112,0.32711 l 0.24183,0.76688 -3.16258,3.45147 -0.47956,-1.52084 c -0.14528,0.12439 -0.28985,0.25047 -0.43511,0.37776 l 0.50229,1.5937 -3.16209,3.45044 -0.58653,-1.85932 c -0.13851,0.1558 -0.27323,0.31216 -0.40616,0.46922 l 0.58031,1.84071 -3.16309,3.45147 -0.17468,-0.55397 c -0.11406,0.44594 -0.17674,0.8855 -0.17674,1.31517 0,0.12791 0.008,0.25696 0.0181,0.38654 z m 197.426708,-0.89401 -1.0051,-3.18585 0.65887,-0.71882 c -0.0997,-0.1466 -0.2072,-0.29291 -0.31369,-0.43925 l -0.52864,0.57671 -0.64595,-2.04897 c -0.27099,-0.31108 -0.55576,-0.61852 -0.84596,-0.92346 l 1.07953,3.42305 -1.21388,1.32447 c 0.14414,0.102661 0.28816,0.20552 0.43254,0.309541 l 0.96427,-1.052651 0.71623,2.270661 c 0.11451,0.0737 0.298,0.19299 0.70178,0.464569 z m -6.15259,-4.26692 -0.0196,-0.063 2.82876,-3.08715 c -0.12525,-0.12437 -0.25056,-0.24827 -0.37777,-0.37104 l -2.63446,2.87579 -1.40766,-4.46329 1.002,-1.09347 c -0.14168,-0.11521 -0.27659,-0.21753 -0.4165,-0.32918 l -0.76946,0.83974 -0.59997,-1.90324 c -0.2471,-0.186339 -0.49271,-0.372619 -0.72451,-0.54261 l 0.91313,2.89492 -2.27944,2.4877 c 0.1546,0.0893 0.31134,0.18309 0.46662,0.27389 l 1.99625,-2.178679 1.32914,4.214209 c 0.23114,0.14787 0.4613,0.29413 0.6935,0.44545 z m -166.308208,-9.30176 -1.40766,-4.46536 3.16206,-3.45095 1.40767,4.46536 z m 8.74054,-2.75693 -1.40766,-4.46485 3.16312,-3.45198 1.407663,4.46484 z m 81.462228,-0.71727 -1.40819,-4.46485 3.16312,-3.4525 1.40819,4.46536 z m -43.31414,-0.21498 -1.4082,-4.46484 3.16363,-3.45199 1.40766,4.46485 z m 62.38843,-0.25166 -1.40767,-4.46536 3.16156,-3.45044 1.4082,4.46536 z m -43.31518,-0.21342 -1.40769,-4.46433 3.16312,-3.45199 1.40767,4.46433 z m -43.31364,-0.21291 -1.40766,-4.46485 3.16259,-3.45198 1.40819,4.46536 z m 105.70258,-0.0393 -1.40817,-4.46536 3.16259,-3.45198 1.40819,4.46536 z m -43.31415,-0.21497 -1.40766,-4.46433 3.16209,-3.45147 1.40816,4.46485 z m -43.31364,-0.21239 -1.40766,-4.46536 3.16106,-3.44992 1.40816,4.46485 z m 62.38637,-0.2527 -1.40713,-4.46277 3.16312,-3.45251 1.40766,4.4633 z m -43.31311,-0.21239 -1.40817,-4.46536 3.1631,-3.45198 1.40819,4.46536 z m -43.31414,-0.21549 -1.40716,-4.46277 3.16312,-3.45199 1.40716,4.46278 z m 105.70207,-0.0388 -1.40716,-4.46329 3.16158,-3.44992 1.40714,4.46278 z m -43.31364,-0.21239 -1.40817,-4.46536 3.16206,-3.45095 1.4082,4.46536 z m -43.31518,-0.21394 -1.40716,-4.46329 3.16259,-3.45198 1.40769,4.46329 z m 62.38896,-0.25218 -1.40819,-4.46484 3.16312,-3.45199 1.40767,4.46536 z m -43.31364,-0.21394 -1.40766,-4.46432 3.16103,-3.44992 1.40769,4.46381 z m 62.3869,-0.25114 -1.40819,-4.46537 3.16312,-3.45198 1.40816,4.46536 z m -43.31417,-0.21446 -1.40766,-4.46381 3.16312,-3.45199 1.40766,4.46381 z m -43.31364,-0.21343 -1.40816,-4.46484 3.16312,-3.45199 1.40816,4.46485 z"
         style="color:#000000;font-style:normal;font-variant:normal;font-weight:normal;font-stretch:normal;font-size:medium;line-height:normal;font-family:sans-serif;font-variant-ligatures:normal;font-variant-position:normal;font-variant-caps:normal;font-variant-numeric:normal;font-variant-alternates:normal;font-feature-settings:normal;text-indent:0;text-align:start;text-decoration:none;text-decoration-line:none;text-decoration-style:solid;text-decoration-color:#000000;letter-spacing:normal;word-spacing:normal;text-transform:none;writing-mode:lr-tb;direction:ltr;text-orientation:mixed;dominant-baseline:auto;baseline-shift:baseline;text-anchor:start;white-space:normal;shape-padding:0;clip-rule:nonzero;display:inline;overflow:visible;visibility:visible;opacity:1;isolation:auto;mix-blend-mode:normal;color-interpolation:sRGB;color-interpolation-filters:linearRGB;solid-color:#000000;solid-opacity:1;vector-effect:none;fill:#000000;fill-opacity:1;fill-rule:evenodd;stroke:none;stroke-width:0.5291667;stroke-linecap:butt;stroke-linejoin:miter;stroke-miterlimit:4;stroke-dasharray:none;stroke-dashoffset:0;stroke-opacity:1;color-rendering:auto;image-rendering:auto;shape-rendering:auto;text-rendering:auto;enable-background:accumulate" />
      <path
         inkscape:connector-curvature="0"
         id="path2086"
         d="m 258.86909,83.62377 c -0.52099,0.350319 -0.84331,0.557649 -0.85784,0.566888 l -2.01382,4.209047 -1.27021,-1.853118 c -0.14597,0.100352 -0.29102,0.197136 -0.43667,0.296106 l 1.44436,2.106848 -1.65674,3.462322 c 0.35679,-0.321001 0.71009,-0.650841 1.0578,-0.985986 l 0.94414,-1.973006 0.40926,0.597379 c 0.12359,-0.133548 0.24286,-0.26839 0.36277,-0.403077 l -0.50953,-0.743624 2.02107,-4.222996 0.99631,1.453139 c 0.0942,-0.183719 0.18476,-0.36712 0.26459,-0.549836 l -0.99735,-1.454692 z m -195.351909,0.496094 0.869198,1.268137 -1.125514,2.352312 c 0.114729,0.162986 0.230746,0.325835 0.353468,0.488342 l 1.117761,-2.336808 2.646349,3.860747 -0.824756,1.723408 c 0.13367,0.12835 0.267253,0.257054 0.402561,0.38344 l 0.767395,-1.603521 2.647383,3.861779 -0.223242,0.466122 c 0.141743,0.112091 0.285692,0.228351 0.424781,0.336415 l 0.143142,-0.299207 0.587044,0.856279 c 0.458981,0.346165 0.891374,0.664631 1.292429,0.952397 l -1.616956,-2.357996 1.812293,-3.787883 c -0.152234,-0.08935 -0.303962,-0.177358 -0.456819,-0.2682 l -1.700155,3.552753 -2.646867,-3.861779 0.883666,-1.846916 c -0.148249,-0.09672 -0.296802,-0.195376 -0.44545,-0.29352 l -0.783416,1.637109 -2.646349,-3.860747 0.05271,-0.110588 c -0.467397,-0.337592 -0.9355,-0.677839 -1.405083,-1.029912 0,0 -0.107055,-0.07029 -0.125573,-0.08216 z m 187.800939,4.668448 c -0.29536,0.185362 -0.58719,0.361254 -0.88056,0.541052 l 0.0207,0.02997 -2.02054,4.22248 -1.50845,-2.200897 c -0.15367,0.08555 -0.30961,0.175898 -0.46249,0.259932 l 1.70789,2.491319 -2.02105,4.223515 -2.64686,-3.861779 0.8206,-1.715659 c -0.25932,0.134149 -0.51964,0.269693 -0.77618,0.39946 l -0.38912,0.813388 -0.31676,-0.461987 c -0.15992,0.07923 -0.3193,0.158105 -0.47802,0.235643 l 0.53228,0.776179 -2.02107,4.222999 -2.2443,-3.273703 c -0.16613,0.07237 -0.33081,0.143008 -0.49506,0.213426 l 2.47581,3.611666 -1.93633,4.046264 c 0.27157,-0.15971 0.54327,-0.32014 0.81701,-0.48524 l 1.46349,-3.058731 1.02732,1.498621 c 0.14687,-0.0956 0.29451,-0.19431 0.44183,-0.29146 l -1.2051,-1.758547 2.02055,-4.222999 2.5151,3.669027 c 0.26821,-0.195545 0.53562,-0.387149 0.8046,-0.588078 0,0 0.2205,-0.143309 0.41807,-0.272333 l 1.53892,-3.215826 0.99528,1.452108 c 0.1396,-0.102 0.27911,-0.205454 0.42479,-0.313677 l -1.15705,-1.688269 2.02057,-4.22248 2.31923,3.383256 c 0.13462,-0.114922 0.2689,-0.230333 0.4036,-0.347782 l -2.4593,-3.586861 z m -177.680627,1.991609 2.008145,2.929538 -1.741495,3.639571 c 0.165436,0.112728 0.310131,0.209889 0.443902,0.299207 l 1.643311,-3.434935 2.646865,3.861782 -0.927592,1.938896 c 0.146526,0.1011 0.293597,0.20433 0.439766,0.30386 l 0.832509,-1.739945 2.647384,3.861265 -0.04599,0.0966 c 0.430373,0.26405 0.858445,0.52179 1.283641,0.77256 l -0.628385,-0.91622 2.020033,-4.221447 2.645833,3.859717 -1.342038,2.80396 c 0.156348,0.0847 0.311277,0.16715 0.466638,0.25011 l 1.220597,-2.55023 2.647384,3.86178 -0.245981,0.51418 c 0.159885,0.0758 0.318617,0.15045 0.476975,0.22428 l 0.11317,-0.23616 0.292489,0.42633 c 0.313523,0.14415 0.620546,0.28092 0.927592,0.41754 l -0.956013,-1.39474 2.020548,-4.22352 2.647384,3.86126 -1.327568,2.774 c 0.16451,0.067 0.329938,0.13469 0.491961,0.19947 l 1.181322,-2.4691 2.645834,3.85971 -0.0098,0.0212 c 0.29378,0.0998 0.579599,0.19509 0.85938,0.28628 l -0.241329,-0.35243 2.020545,-4.223 2.64739,3.86178 -0.84646,1.7694 c 0.17209,0.0453 0.35951,0.0971 0.51883,0.13746 l 0.67179,-1.40456 1.27124,1.85466 c 0.46731,0.0958 0.72657,0.1385 0.72657,0.1385 h 0.0103 l -1.74408,-2.54455 2.02003,-4.22145 2.64687,3.86126 -1.38958,2.90474 h 0.58652 l 1.14877,-2.40037 1.64538,2.40037 h 0.64182 l -2.02365,-2.95176 2.02107,-4.223 2.64583,3.85971 -1.58647,3.31505 h 0.58653 l 1.34514,-2.8112 1.92701,2.8112 h 0.63976 l -2.30374,-3.36052 2.02055,-4.22352 2.64738,3.86178 -1.78077,3.72226 h 0.58446 l 1.54099,-3.21996 2.20711,3.21996 h 0.64182 l -2.58537,-3.77135 2.02054,-4.22196 2.64687,3.86178 -1.97662,4.13153 h 0.58704 l 1.73529,-3.62717 2.48667,3.62717 h 0.8568 l 1.93218,-4.03748 2.64738,3.86178 -0.0842,0.1757 h 0.84491 l -0.15348,-0.22376 2.02055,-4.22248 2.64687,3.86229 -0.27957,0.58395 h 0.58704 l 0.0382,-0.0801 0.0548,0.0801 h 0.64234 l -0.43305,-0.63149 2.02003,-4.22248 2.64635,3.86075 -0.4749,0.99322 h 0.58549 l 0.23461,-0.4899 0.3359,0.4899 h 0.64027 l -0.71313,-1.04025 2.02105,-4.22352 2.64739,3.86179 -0.67077,1.40198 h 0.58603 l 0.42995,-0.89866 0.61597,0.89866 h 0.64027 l -0.99322,-1.44849 2.02004,-4.22249 2.64633,3.86075 -0.86608,1.81023 h 0.58706 l 0.62476,-1.30638 0.89556,1.30638 h 0.6418 l -1.27331,-1.85726 2.02057,-4.22351 2.64687,3.86075 -1.06249,2.22002 h 0.58549 l 0.82167,-1.71721 1.17718,1.71721 h 0.10335 0.53589 l -1.5539,-2.26705 2.02104,-4.223 2.6474,3.86178 -1.2578,2.62827 h 0.58599 l 1.01701,-2.12494 1.45677,2.12494 h 0.64077 l -1.83399,-2.67633 2.01951,-4.22093 2.64687,3.86075 -1.45315,3.03651 h 0.58653 l 1.21182,-2.53266 1.73633,2.53266 h 0.6413 l -2.11358,-3.08354 2.02108,-4.22403 2.64686,3.86178 -1.64899,3.44579 h 0.58447 l 1.40869,-2.94349 2.01798,2.94349 h 0.63923 l -2.39419,-3.49281 2.02057,-4.22352 2.64737,3.86178 -1.84433,3.85455 h 0.58653 l 1.60353,-3.35019 2.29651,3.35019 h 1.17975 l 1.79887,-3.75843 2.57657,3.75843 h 0.70437 l 1.9947,-4.16977 2.64739,3.86177 -0.14729,0.308 h 0.99787 l -0.24236,-0.35347 2.02108,-4.22351 2.64633,3.86022 -0.34311,0.71676 h 0.5865 l 0.10182,-0.21239 0.14573,0.21239 h 0.64182 l -0.52347,-0.76378 2.01951,-4.22145 2.64686,3.86126 -0.53795,1.12397 h 0.5855 l 0.29713,-0.62115 0.42582,0.62115 h 0.64129 l -0.80356,-1.17254 2.02054,-4.223 2.64739,3.86178 -0.73379,1.53376 h 0.586 l 0.493,-1.02991 0.70588,1.02991 h 0.63976 l -1.08262,-1.57975 2.02107,-4.22352 2.64634,3.86023 -0.92964,1.94304 h 0.58653 l 0.68831,-1.43867 0.93792,1.36839 c 0.15237,-0.0281 0.25826,-0.0491 0.56433,-0.11369 l -1.23817,-1.80609 2.01951,-4.22093 2.64737,3.86126 -0.71932,1.50275 c 0.21555,-0.0586 0.44312,-0.12362 0.6754,-0.18965 l 0.38809,-0.81081 0.39894,0.58136 c 0.1796,-0.0535 0.34517,-0.10046 0.53279,-0.15813 l -0.66818,-0.97461 2.02107,-4.22352 2.63396,3.84266 c 0.24508,-0.091 0.49093,-0.18297 0.74311,-0.27957 l 1.89962,-3.96978 1.70532,2.4877 c 0.16111,-0.0708 0.32743,-0.14724 0.49041,-0.22014 l -1.9322,-2.81895 2.02004,-4.22145 2.64583,3.85972 -1.17977,2.466 c 0.25217,-0.11907 0.5048,-0.23932 0.76067,-0.36329 l 0.76483,-1.59835 0.6232,0.9095 c 0.15738,-0.0798 0.31586,-0.16171 0.4744,-0.24339 l -0.83407,-1.21698 2.02107,-4.22352 2.39107,3.48816 c 0.1516,-0.0875 0.30451,-0.17798 0.45683,-0.26717 l -2.58485,-3.770825 1.8252,-3.81527 c -0.24781,0.104979 -0.4895,0.204311 -0.73276,0.30489 l -1.43817,3.006018 -1.31516,-1.918745 c -0.16926,0.06353 -0.34275,0.130477 -0.50901,0.19172 l 1.56115,2.276864 -2.02107,4.223518 -2.64584,-3.85972 0.88935,-1.858797 c -0.23816,0.08033 -0.46681,0.154247 -0.6966,0.229441 l -0.53845,1.125514 -0.53589,-0.781865 c -0.18082,0.05633 -0.3547,0.109807 -0.52917,0.16278 l 0.80151,1.169957 -2.02004,4.22145 -2.6474,-3.86178 0.25789,-0.538472 c -0.41436,0.100752 -0.77938,0.186382 -1.09297,0.255282 l 0.22739,0.33176 -2.02108,4.22352 -2.64686,-3.86127 0.2,-0.41806 h -1.12604 l 0.31728,0.46302 -2.02054,4.22352 -2.64636,-3.86023 0.39534,-0.82631 h -0.58603 l -0.15449,0.32246 -0.22119,-0.32246 h -0.64182 l 0.59893,0.87385 -2.01951,4.22145 -2.64739,-3.86178 0.59015,-1.23352 h -0.58446 l -0.34984,0.73071 -0.50075,-0.73071 h -0.64235 l 0.87902,1.28209 -2.02054,4.22352 -2.6474,-3.86126 0.78703,-1.64435 h -0.58652 l -0.54571,1.1405 -0.78184,-1.1405 h -0.63926 l 1.15808,1.68982 -2.02054,4.223 -2.64637,-3.86023 0.98238,-2.05259 h -0.58653 l -0.74105,1.54875 -1.06193,-1.54875 h -0.64132 l 1.4392,2.10013 -2.01951,4.22093 -2.6474,-3.86178 1.17719,-2.45928 h -0.58497 l -0.93639,1.95699 -1.34151,-1.95699 h -0.64183 l 1.71929,2.50838 -2.02055,4.22351 -2.64739,-3.86126 1.37356,-2.87063 h -0.58703 l -1.13223,2.36627 -1.62214,-2.36627 H 185.857 l 1.99885,2.91559 -2.02108,4.22351 -2.64583,-3.86023 1.56943,-3.27887 h -0.58706 l -1.32807,2.77503 -1.90223,-2.77503 h -0.64182 l 2.28049,3.32641 -2.02004,4.22093 -2.64686,-3.86178 1.76321,-3.68556 h -0.58447 l -1.52341,3.18379 -2.18231,-3.18379 h -0.6413 l 2.56005,3.73466 -2.02054,4.22351 -2.64739,-3.86178 1.96061,-4.09639 h -0.58706 l -1.71926,3.59255 -2.4624,-3.59255 h -0.89812 l -1.91461,4.00131 -2.64739,-3.86178 0.0667,-0.13953 H 163.631 l 0.12866,0.18759 -2.01951,4.22144 -2.64633,-3.86074 0.26249,-0.54829 h -0.58703 l -0.0212,0.0439 -0.03,-0.0439 h -0.6418 l 0.40822,0.59531 -2.02107,4.22352 -2.64633,-3.86075 0.45836,-0.95808 h -0.586 l -0.21757,0.45475 -0.3116,-0.45475 h -0.63976 l 0.68834,1.00407 -2.02054,4.22352 -2.6474,-3.86178 0.65371,-1.36581 h -0.586 l -0.41238,0.86248 -0.59118,-0.86248 h -0.64183 l 0.96893,1.41387 -2.02004,4.22196 -2.64634,-3.86074 0.84956,-1.77509 h -0.58704 l -0.60823,1.27124 -0.87127,-1.27124 h -0.64079 l 1.24902,1.8216 -2.02106,4.22351 -2.64739,-3.86178 1.0449,-2.18333 h -0.58446 l -0.8046,1.68104 -1.15239,-1.68104 h -0.64027 l 1.52963,2.23139 -2.02055,4.22248 -2.64739,-3.86178 1.24024,-2.59209 h -0.58653 l -0.99891,2.08773 -1.43092,-2.08773 h -0.64233 l 1.80919,2.63912 -2.02055,4.22248 -2.64532,-3.85972 1.43609,-3.00188 h -0.58704 l -1.19476,2.49752 -1.71204,-2.49752 h -0.64027 l 2.08876,3.04788 -2.02055,4.22351 -2.64738,-3.86178 1.63142,-3.40961 h -0.58446 l -1.39113,2.90732 -1.99316,-2.90732 h -0.64027 l 2.36988,3.45767 -2.02003,4.22197 -2.64738,-3.86178 1.82624,-3.81786 h -0.58601 l -1.58543,3.31401 -2.27221,-3.31401 h -1.22215 l -1.78181,3.72484 -2.55333,-3.72484 h -0.74414 l -1.97766,4.1336 -2.64738,-3.86178 0.13022,-0.27182 h -0.95808 l 0.2186,0.31885 -2.02004,4.22144 -2.645831,-3.85971 0.330213,-0.68988 c -0.02475,-0.004 -0.259535,-0.0481 -0.538469,-0.10232 l -0.137459,0.28784 -0.25218,-0.36742 c -0.222414,-0.0466 -0.459385,-0.0974 -0.754478,-0.16485 l 0.743109,1.08366 -2.021065,4.22299 -2.646868,-3.86126 1.045414,-2.185396 c -0.160822,-0.04519 -0.344498,-0.101304 -0.51263,-0.14986 l -0.876948,1.832966 -1.827795,-2.666507 c -0.27147,-0.08943 -0.547579,-0.181999 -0.830442,-0.278538 l 2.395204,3.494365 -2.020549,4.22351 -2.647384,-3.86229 1.90531,-3.981674 c -0.16727,-0.05796 -0.331857,-0.114734 -0.502812,-0.175184 l -1.748213,3.653008 -2.645833,-3.859713 0.592727,-1.238684 C 84.954333,96.314985 84.78909,96.24563 84.625453,96.17804 l -0.448034,0.936895 -1.088306,-1.588016 c -0.30367,-0.131916 -0.610097,-0.266602 -0.91984,-0.405143 l 1.744594,2.544545 -2.02003,4.221449 -2.646868,-3.861264 1.663983,-3.478339 c -0.157766,-0.07337 -0.317846,-0.149712 -0.476975,-0.224793 l -1.531689,3.200321 -2.647383,-3.861779 0.547769,-1.144633 c -0.154532,-0.08111 -0.311703,-0.166401 -0.467153,-0.249081 l -0.425816,0.889868 -1.22783,-1.791621 c -0.346978,-0.193307 -0.693621,-0.385373 -1.044382,-0.586528 z m 39.993427,9.711039 2.64583,3.85971 -2.02106,4.22351 -2.64584,-3.86023 z m 55.75061,0.27492 2.64686,3.86126 -2.02107,4.22351 -2.64634,-3.86074 z m -61.02678,0.13177 2.64687,3.86178 -2.02055,4.22351 -2.64738,-3.86177 z m 116.77687,0.14573 2.64736,3.86229 -2.02054,4.223 -2.6479,-3.86178 z m -61.02678,0.13229 2.64739,3.86229 -2.02004,4.22094 -2.6474,-3.86178 z m -61.02625,0.13229 2.64687,3.86178 -2.02003,4.22196 -2.64687,-3.86177 z m 116.7779,0.14469 2.64736,3.86178 -2.02107,4.223 -2.64686,-3.86126 z m -61.02626,0.1323 2.64634,3.86022 -2.02107,4.22404 -2.64634,-3.86075 z m -61.027286,0.13229 2.645836,3.85971 -2.020551,4.223 -2.645834,-3.85971 z m 116.777356,0.14572 2.64583,3.86024 -2.01951,4.22144 -2.64634,-3.86023 z m -61.02623,0.12971 2.64634,3.86075 -2.02054,4.22351 -2.64637,-3.86074 z m 55.75007,0.27699 2.64739,3.8623 -2.02107,4.22351 -2.64737,-3.8623 z m -61.02676,0.13281 2.64687,3.86178 -2.02004,4.22196 -2.64737,-3.86178 z m 55.75163,0.27647 2.64686,3.86126 -2.02054,4.22351 -2.64737,-3.86178 z m -61.02676,0.13177 2.64687,3.86075 -2.02107,4.22403 -2.64635,-3.86075 z m 55.75059,0.27854 2.64584,3.86023 -2.01952,4.22093 -2.64633,-3.86023 z m -61.02727,0.12919 2.64687,3.8623 -2.02003,4.22248 -2.64739,-3.8623 z m 55.75111,0.2775 2.64687,3.86178 -2.02055,4.22351 -2.64737,-3.86177 z m -61.02676,0.13281 2.64687,3.86178 -2.02003,4.22248 -2.64738,-3.8623 z m 55.75163,0.27647 2.64687,3.86126 -2.02105,4.22351 -2.64687,-3.86126 z m -61.02676,0.13229 2.64584,3.8592 -2.02107,4.22351 -2.64531,-3.8592 z m 55.7506,0.27802 2.64583,3.86023 -2.02001,4.22145 -2.64584,-3.86023 z"
         style="color:#000000;font-style:normal;font-variant:normal;font-weight:normal;font-stretch:normal;font-size:medium;line-height:normal;font-family:sans-serif;font-variant-ligatures:normal;font-variant-position:normal;font-variant-caps:normal;font-variant-numeric:normal;font-variant-alternates:normal;font-feature-settings:normal;text-indent:0;text-align:start;text-decoration:none;text-decoration-line:none;text-decoration-style:solid;text-decoration-color:#000000;letter-spacing:normal;word-spacing:normal;text-transform:none;writing-mode:lr-tb;direction:ltr;text-orientation:mixed;dominant-baseline:auto;baseline-shift:baseline;text-anchor:start;white-space:normal;shape-padding:0;clip-rule:nonzero;display:inline;overflow:visible;visibility:visible;opacity:1;isolation:auto;mix-blend-mode:normal;color-interpolation:sRGB;color-interpolation-filters:linearRGB;solid-color:#000000;solid-opacity:1;vector-effect:none;fill:#000000;fill-opacity:1;fill-rule:evenodd;stroke:none;stroke-width:0.5291667;stroke-linecap:butt;stroke-linejoin:miter;stroke-miterlimit:4;stroke-dasharray:none;stroke-dashoffset:0;stroke-opacity:1;color-rendering:auto;image-rendering:auto;shape-rendering:auto;text-rendering:auto;enable-background:accumulate" />
      <path
         sodipodi:nodetypes="cc"
         inkscape:connector-curvature="0"
         id="path2104"
         d="M 288.018,83.48528 H 217.332"
         style="fill:none;fill-rule:evenodd;stroke:#000000;stroke-width:2.64583325;stroke-linecap:butt;stroke-linejoin:miter;stroke-miterlimit:4;stroke-dasharray:none;stroke-opacity:1" />
      <path
         sodipodi:nodetypes="cccc"
         inkscape:connector-curvature="0"
         style="fill:#decd87;fill-opacity:1;fill-rule:evenodd;stroke:#000000;stroke-width:2.64583325;stroke-linecap:butt;stroke-linejoin:miter;stroke-miterlimit:4;stroke-dasharray:none;stroke-opacity:1"
         d="m 236.83677,62.106509 c -11.35384,-6.13647 -20.12952,-7.55509 -20.12952,-7.55509 0,0 12.72051,-32.759178 70.68612,0.917746 0,0 -48.17848,-6.672496 -50.5566,6.637344 z"
         id="path2111" />
      <path
         id="path2113"
         d="m 236.83677,105.65154 c -11.35384,6.13647 -20.12952,7.55509 -20.12952,7.55509 0,0 12.72051,32.75918 70.68612,-0.91775 0,0 -48.17848,6.6725 -50.5566,-6.63734 z"
         style="fill:#decd87;fill-opacity:1;fill-rule:evenodd;stroke:#000000;stroke-width:2.64583325;stroke-linecap:butt;stroke-linejoin:miter;stroke-miterlimit:4;stroke-dasharray:none;stroke-opacity:1"
         inkscape:connector-curvature="0"
         sodipodi:nodetypes="cccc" />
    </g>
  </g>
</svg>
