<?xml version="1.0" encoding="UTF-8" standalone="no"?>
<!-- Created with Inkscape (http://www.inkscape.org/) -->

<svg
   xmlns:dc="http://purl.org/dc/elements/1.1/"
   xmlns:cc="http://creativecommons.org/ns#"
   xmlns:rdf="http://www.w3.org/1999/02/22-rdf-syntax-ns#"
   xmlns:svg="http://www.w3.org/2000/svg"
   xmlns="http://www.w3.org/2000/svg"
   xmlns:sodipodi="http://sodipodi.sourceforge.net/DTD/sodipodi-0.dtd"
   xmlns:inkscape="http://www.inkscape.org/namespaces/inkscape"
   width="170.69933mm"
   height="49.519081mm"
   viewBox="0 0 170.69933 49.519081"
   version="1.1"
   id="svg2121"
   inkscape:version="0.92.2 (unknown)"
   sodipodi:docname="airshipshadow.svg">
  <defs
     id="defs2115" />
  <sodipodi:namedview
     id="base"
     pagecolor="#ffffff"
     bordercolor="#666666"
     borderopacity="1.0"
     inkscape:pageopacity="0.0"
     inkscape:pageshadow="2"
     inkscape:zoom="0.35"
     inkscape:cx="-221.70432"
     inkscape:cy="65.007933"
     inkscape:document-units="mm"
     inkscape:current-layer="layer1"
     showgrid="false"
     inkscape:window-width="1600"
     inkscape:window-height="876"
     inkscape:window-x="0"
     inkscape:window-y="24"
     inkscape:window-maximized="1"
     fit-margin-top="0"
     fit-margin-left="0"
     fit-margin-right="0"
     fit-margin-bottom="0" />
  <metadata
     id="metadata2118">
    <rdf:RDF>
      <cc:Work
         rdf:about="">
        <dc:format>image/svg+xml</dc:format>
        <dc:type
           rdf:resource="http://purl.org/dc/dcmitype/StillImage" />
        <dc:title></dc:title>
      </cc:Work>
    </rdf:RDF>
  </metadata>
  <g
     inkscape:label="Layer 1"
     inkscape:groupmode="layer"
     id="layer1"
     transform="translate(-22.75153,-116.51427)">
    <path
       style="color:#000000;font-style:normal;font-variant:normal;font-weight:normal;font-stretch:normal;font-size:medium;line-height:normal;font-family:sans-serif;font-variant-ligatures:normal;font-variant-position:normal;font-variant-caps:normal;font-variant-numeric:normal;font-variant-alternates:normal;font-feature-settings:normal;text-indent:0;text-align:start;text-decoration:none;text-decoration-line:none;text-decoration-style:solid;text-decoration-color:#000000;letter-spacing:normal;word-spacing:normal;text-transform:none;writing-mode:lr-tb;direction:ltr;text-orientation:mixed;dominant-baseline:auto;baseline-shift:baseline;text-anchor:start;white-space:normal;shape-padding:0;clip-rule:nonzero;display:inline;overflow:visible;visibility:visible;opacity:1;isolation:auto;mix-blend-mode:normal;color-interpolation:sRGB;color-interpolation-filters:linearRGB;solid-color:#000000;solid-opacity:1;vector-effect:none;fill:#000000;fill-opacity:1;fill-rule:evenodd;stroke:none;stroke-width:1.05833328;stroke-linecap:butt;stroke-linejoin:miter;stroke-miterlimit:4;stroke-dasharray:none;stroke-dashoffset:0;stroke-opacity:1;color-rendering:auto;image-rendering:auto;shape-rendering:auto;text-rendering:auto;enable-background:accumulate"
       d="m 61.39667,116.51427 0.42655,0.98416 0.426561,-0.98416 z m 2.39137,0 0.42654,0.98416 0.426551,-0.98416 z m 2.391341,0 0.426551,0.98462 0.426998,-0.98462 z m 2.39136,0 0.427,0.98462 0.42654,-0.98462 z m 2.391349,0 0.426561,0.98462 0.42699,-0.98462 z m 2.39137,0 0.42654,0.98462 0.427001,-0.98462 z m 2.391341,0 0.426998,0.98462 0.426562,-0.98462 z m 2.39136,0 0.427001,0.98462 0.426548,-0.98462 z m 2.391349,0 0.427011,0.98462 0.42654,-0.98462 z m 2.39136,0 0.42699,0.98462 0.426561,-0.98462 z m 2.39136,0 0.42699,0.98462 0.426561,-0.98462 z m 2.391352,0 0.426997,0.98462 0.426551,-0.98462 z m 2.391799,0 0.426561,0.98416 0.42654,-0.98416 z m 2.391359,0 0.42654,0.98416 0.426562,-0.98416 z m 2.391352,0 0.426548,0.98416 0.426551,-0.98416 z m 2.391349,0 0.426551,0.98416 0.426558,-0.98416 z m 2.391371,0 0.426548,0.98416 0.42654,-0.98416 z m 2.391348,0 0.42655,0.98416 0.42655,-0.98416 z m 2.39136,0 0.42654,0.98416 0.42655,-0.98416 z m 2.39134,0 0.42656,0.98416 0.42656,-0.98416 z m 2.39136,0 0.42656,0.98416 0.42655,-0.98416 z m 2.39136,0 0.42655,0.98416 0.42655,-0.98416 z m 2.39136,0 0.42654,0.98416 0.42656,-0.98416 z m 2.39135,0 0.42655,0.98416 0.42655,-0.98416 z m 2.39135,0 0.42655,0.98462 0.427,-0.98462 z m 2.39136,0 0.42655,0.98462 0.42699,-0.98462 z m 2.39136,0 0.42655,0.98462 0.427,-0.98462 z m 2.39135,0 0.42655,0.98462 0.427,-0.98462 z m 2.39135,0 0.42656,0.98462 0.42699,-0.98462 z m 2.39136,0 0.42656,0.98462 0.42698,-0.98462 z m 2.39136,0 0.42655,0.98462 0.427,-0.98462 z m 2.39135,0 0.42655,0.98462 0.427,-0.98462 z m 2.39136,0 0.42655,0.98462 0.427,-0.98462 z m 2.39135,0 0.42655,0.98462 0.42699,-0.98462 z m 2.3918,0 0.42655,0.98416 0.42655,-0.98416 z m 2.39136,0 0.42654,0.98416 0.42657,-0.98416 z m 2.39135,0 0.42656,0.98416 0.42655,-0.98416 z m 2.39136,0 0.42655,0.98416 0.42655,-0.98416 z m 2.39135,0 0.42655,0.98416 0.42655,-0.98416 z m 2.39136,0 0.42654,0.98416 0.42657,-0.98416 z m -94.899309,0.22438 c -0.176671,0.0391 -0.382,0.0881 -0.598051,0.13952 l 0.268811,0.62026 z m 97.446619,0.13552 0.27059,0.62383 0.2195,-0.50654 c -0.1835,-0.046 -0.32802,-0.0788 -0.49009,-0.11729 z m -100.138329,0.55718 c -0.0168,0.005 -0.0347,0.0104 -0.0515,0.0151 l 0.02259,0.0515 z m 15.515371,0.53852 -0.495872,1.14367 0.49543,1.14371 0.495861,-1.14371 z m 2.391349,0 -0.495861,1.14367 0.495861,1.14371 0.495429,-1.14371 z m -19.13128,4.3e-4 -0.495422,1.14324 0.495422,1.14325 0.495408,-1.14325 z m 2.391349,0 -0.495419,1.14324 0.495419,1.14325 0.49543,-1.14325 z m 11.957219,0 -0.495869,1.14324 0.495419,1.14371 0.495872,-1.14371 z m 7.174071,0 -0.49586,1.14324 0.49586,1.14371 0.49542,-1.14371 z m 2.39135,0 -0.495869,1.14324 0.495419,1.14371 0.495871,-1.14371 z m 2.391359,0 -0.495868,1.14324 0.495429,1.14371 0.495861,-1.14371 z m 2.391352,0 -0.49585,1.14324 0.495419,1.14371 0.49585,-1.14371 z m 38.262129,0 -0.49586,1.14324 0.49586,1.14371 0.49543,-1.14371 z m 2.39137,0 -0.49587,1.14324 0.49587,1.14371 0.49542,-1.14371 z m 2.39135,0 -0.49587,1.14324 0.49587,1.14371 0.49541,-1.14371 z m 2.39134,0 -0.49586,1.14324 0.49586,1.14371 0.49543,-1.14371 z m 2.39136,0 -0.49587,1.14324 0.49587,1.14371 0.49542,-1.14371 z m 2.39136,0 -0.49586,1.14324 0.49586,1.14371 0.49543,-1.14371 z m 2.39136,0 -0.49587,1.14324 0.49587,1.14371 0.49542,-1.14371 z m 21.52219,0 -0.49542,1.14282 0.49542,1.14413 0.49586,-1.14325 z m 2.39136,0 -0.49543,1.14324 0.49543,1.14281 0.49542,-1.14281 z m -100.43781,4.6e-4 -0.49543,1.14278 0.49543,1.14325 0.495421,-1.14325 z m 2.391359,0 -0.495429,1.14278 0.495429,1.14325 0.495422,-1.14325 z m 2.391352,0 -0.495422,1.14278 0.495422,1.14371 0.495869,-1.14325 z m 2.391349,0 -0.495419,1.14278 0.495869,1.14371 0.495422,-1.14325 z m 19.131301,0 -0.495871,1.14367 0.495411,1.14282 0.495869,-1.14371 z m 2.391339,0 -0.495858,1.14367 0.495419,1.14282 0.495869,-1.14371 z m 2.39136,0 -0.495419,1.14324 0.495419,1.14279 0.495421,-1.14325 z m 2.391359,0 -0.495429,1.14278 0.495429,1.14325 0.495422,-1.14325 z m 2.391352,0 -0.495421,1.14278 0.495421,1.14325 0.495419,-1.14325 z m 2.39136,0 -0.49543,1.14278 0.49543,1.14325 0.495419,-1.14325 z m 2.391349,0 -0.49542,1.14278 0.49542,1.14325 0.49542,-1.14325 z m 2.39136,0 -0.49542,1.14278 0.49542,1.14325 0.49542,-1.14325 z m 2.39135,0 -0.49542,1.14278 0.49542,1.14325 0.49542,-1.14325 z m 2.39135,0 -0.49542,1.14278 0.49542,1.14325 0.49543,-1.14325 z m 2.39136,0 -0.49543,1.14278 0.49543,1.14325 0.49543,-1.14325 z m 2.39136,0 -0.49542,1.14278 0.49542,1.14325 0.49542,-1.14325 z m 2.39136,0 -0.49543,1.14278 0.49543,1.14325 0.49541,-1.14325 z m 2.39134,0 -0.49541,1.14278 0.49586,1.14371 0.49542,-1.14325 z m 2.39137,0 -0.49544,1.14278 0.49587,1.14371 0.49542,-1.14325 z m 19.13128,0 -0.49587,1.14367 0.49587,1.14282 0.49542,-1.14371 z m 2.39135,0 -0.49587,1.14367 0.49587,1.14282 0.49543,-1.14371 z m 2.39136,0 -0.49542,1.14278 0.49542,1.14325 0.49543,-1.14325 z m 2.39137,0 -0.49544,1.14278 0.49544,1.14325 0.49541,-1.14325 z m 2.39134,0 -0.49541,1.14278 0.49541,1.14325 0.49542,-1.14325 z m 2.39135,0 -0.49542,1.14278 0.49542,1.14325 0.49543,-1.14325 z m 2.39136,0 -0.49542,1.14278 0.49542,1.14325 0.49542,-1.14325 z m 2.39136,0 -0.49542,1.14324 0.49542,1.14235 0.49542,-1.14323 z m -102.595899,0.53763 c -0.18025,0.0633 -0.367199,0.13151 -0.552741,0.1986 l -0.175951,0.40655 0.495422,1.14281 0.495419,-1.14281 z m 109.466039,0.16261 -0.1915,0.44212 0.49542,1.14367 0.49543,-1.14325 -0.0769,-0.17772 c -0.24526,-0.0914 -0.48567,-0.17962 -0.72248,-0.26482 z m -111.69255,0.66738 c -0.224399,0.088 -0.44913,0.1766 -0.679371,0.26971 l 0.28126,0.6487 z m 114.09813,0.24971 0.2897,0.6687 0.20217,-0.46609 c -0.16442,-0.0678 -0.33024,-0.13738 -0.49187,-0.20261 z m -94.16928,1.14013 -0.495861,1.14369 0.495422,1.1437 0.495858,-1.1437 z m 2.39135,0 -0.495859,1.14369 0.495859,1.1437 0.495432,-1.1437 z m 2.391359,0 -0.495869,1.14369 0.495869,1.1437 0.495433,-1.1437 z m 2.391363,0 -0.495872,1.14369 0.495872,1.1437 0.495419,-1.1437 z m 2.391359,0 -0.495871,1.14369 0.495871,1.1437 0.495409,-1.1437 z m 2.391339,0 -0.495869,1.14369 0.495869,1.1437 0.495422,-1.1437 z m 40.65348,0 -0.49585,1.14369 0.49542,1.1437 0.49586,-1.1437 z m 2.39137,0 -0.49587,1.14369 0.49542,1.1437 0.49587,-1.1437 z m 2.39135,0 -0.49587,1.14369 0.49543,1.1437 0.49587,-1.1437 z m 2.39136,0 -0.49587,1.14369 0.49543,1.1437 0.49585,-1.1437 z m 2.39135,0 -0.49586,1.14369 0.49542,1.1437 0.49587,-1.1437 z m 2.39136,0 -0.49587,1.14369 0.49542,1.1437 0.49587,-1.1437 z m -86.089669,4.5e-4 -0.49544,1.14325 0.49544,1.14324 0.495409,-1.14324 z m 2.391339,0 -0.495409,1.14325 0.495409,1.14324 0.495422,-1.14324 z m 2.39136,0 -0.49542,1.14325 0.49542,1.14324 0.495421,-1.14324 z m 2.391351,0 -0.495421,1.14325 0.495421,1.14324 0.49543,-1.14324 z m 100.437809,0 -0.49586,1.14325 0.49586,1.1437 0.49587,-1.14325 z m 2.39137,0 -0.49544,1.14325 0.49544,1.14324 0.49541,-1.14324 z m 2.39135,0 -0.49587,1.14325 0.49587,1.14324 0.49541,-1.14324 z m 2.39135,0 -0.49542,1.14325 0.49542,1.14324 0.49542,-1.14324 z m 2.39135,0 -0.49542,1.14325 0.49542,1.1437 0.49587,-1.14325 z m -107.611869,4.5e-4 -0.495422,1.14325 0.495422,1.14279 0.495419,-1.14324 z m 2.391349,0 -0.495419,1.1428 0.495419,1.14324 0.49543,-1.14324 z m 2.39136,0 -0.495419,1.1428 0.495419,1.1437 0.495871,-1.14325 z m 2.391352,0 -0.495422,1.14325 0.495872,1.14325 0.495419,-1.14325 z m 2.391359,0 -0.495421,1.14325 0.495421,1.14325 0.495869,-1.14325 z m 16.739929,0 -0.495859,1.14368 0.495859,1.14282 0.495432,-1.1437 z m 2.391359,0 -0.495868,1.14368 0.495868,1.14282 0.495422,-1.1437 z m 2.391363,0 -0.495872,1.14368 0.495872,1.14282 0.495408,-1.1437 z m 2.391338,0 -0.495408,1.14325 0.495408,1.14279 0.49543,-1.14324 z m 2.39136,0 -0.495419,1.1428 0.495419,1.14324 0.495422,-1.14324 z m 2.391352,0 -0.495422,1.1428 0.495422,1.14324 0.49544,-1.14324 z m 2.391368,0 -0.49542,1.1428 0.49542,1.14324 0.49541,-1.14324 z m 2.39135,0 -0.49542,1.1428 0.49542,1.14324 0.49542,-1.14324 z m 2.39135,0 -0.49542,1.1428 0.49542,1.14324 0.49542,-1.14324 z m 2.39136,0 -0.49543,1.1428 0.49543,1.14324 0.49543,-1.14324 z m 2.39136,0 -0.49543,1.1428 0.49543,1.14324 0.49542,-1.14324 z m 2.39135,0 -0.49541,1.1428 0.49541,1.14324 0.49542,-1.14324 z m 2.39135,0 -0.49542,1.1428 0.49542,1.14324 0.49542,-1.14324 z m 2.39136,0 -0.49542,1.1428 0.49542,1.1437 0.49587,-1.14325 z m 2.39135,0 -0.49542,1.1428 0.49542,1.1437 0.49587,-1.14325 z m 2.39136,0 -0.49542,1.1428 0.49542,1.1437 0.49586,-1.14325 z m 16.73994,0 -0.49587,1.14368 0.49542,1.14282 0.49587,-1.1437 z m 2.39135,0 -0.49587,1.14368 0.49542,1.14282 0.49587,-1.1437 z m 2.39135,0 -0.49587,1.14368 0.49543,1.14282 0.49586,-1.1437 z m 2.39135,0 -0.49542,1.1428 0.49542,1.14324 0.49543,-1.14324 z m 2.39137,0 -0.49543,1.1428 0.49543,1.14324 0.49542,-1.14324 z m 2.39135,0 -0.49542,1.1428 0.49542,1.14324 0.49542,-1.14324 z m 2.39135,0 -0.49541,1.1428 0.49541,1.14324 0.49542,-1.14324 z m 2.39135,0 -0.49542,1.14325 0.49542,1.14279 0.49543,-1.14324 z M 47.58929,120.9926 c -0.0949,0.044 -0.19153,0.0899 -0.28704,0.13463 l -0.32258,0.74468 0.49542,1.14282 0.49543,-1.14325 z m 121.6432,0.20394 -0.29281,0.67582 0.49543,1.14325 0.49586,-1.14325 -0.18929,-0.43633 c -0.17169,-0.0825 -0.33947,-0.15954 -0.50919,-0.23949 z m -123.70176,0.78734 c -0.24131,0.12114 -0.48676,0.24922 -0.73136,0.37546 l 0.28437,0.65581 z m 125.99803,0.34481 0.2977,0.68692 0.18927,-0.43633 c -0.16396,-0.0859 -0.32441,-0.16689 -0.48697,-0.25059 z m -98.943988,1.1579 -0.495872,1.14414 0.495872,1.14324 0.495419,-1.1437 z m 2.391349,0 -0.495861,1.14414 0.495861,1.14324 0.495429,-1.1437 z m 2.391359,0 -0.49586,1.14414 0.495411,1.14324 0.495869,-1.1437 z m 2.39135,0 -0.495869,1.14414 0.495419,1.14324 0.495871,-1.1437 z m 2.391359,0 -0.495869,1.14414 0.49543,1.14324 0.495861,-1.1437 z m 43.044851,0 -0.49587,1.14414 0.49587,1.14324 0.49542,-1.1437 z m 2.39135,0 -0.49587,1.14414 0.49587,1.14324 0.49541,-1.1437 z m 2.39134,0 -0.49586,1.14414 0.49586,1.14324 0.49543,-1.1437 z m 2.39136,0 -0.49587,1.14414 0.49587,1.14324 0.49542,-1.1437 z m 2.39136,0 -0.49586,1.14414 0.49586,1.14324 0.49543,-1.1437 z m -88.48104,4.2e-4 -0.49542,1.14325 0.49542,1.14325 0.49542,-1.14368 z m 2.39135,0 -0.49541,1.14325 0.49541,1.14325 0.49544,-1.14325 z m 2.391369,0 -0.495429,1.14325 0.495429,1.14325 0.495422,-1.14325 z m 2.391352,0 -0.495422,1.14325 0.495422,1.14325 0.495419,-1.14325 z m 2.39136,0 -0.495422,1.14325 0.495422,1.14325 0.495408,-1.14325 z m 4.782709,0 -0.49543,1.14325 0.49543,1.14325 0.495421,-1.14325 z m 2.391359,0 -0.495429,1.14325 0.495429,1.1437 0.495872,-1.14324 z m 7.17405,0 -0.495419,1.14325 0.495419,1.1437 0.495872,-1.14324 z m 86.089691,0 -0.49586,1.14325 0.49586,1.1437 0.49586,-1.14324 z m 2.39135,0 -0.49542,1.14325 0.49542,1.14325 0.49542,-1.14325 z m 2.39136,0 -0.49587,1.14325 0.49587,1.14325 0.49542,-1.14325 z m 2.39135,0 -0.49542,1.14325 0.49542,1.1437 0.49587,-1.1437 z m 2.39136,0 -0.49542,1.14325 0.49542,1.1437 0.49587,-1.14324 z m 4.78271,0 -0.49543,1.14325 0.49543,1.1437 0.49586,-1.14324 z m 2.39136,0 -0.49543,1.14325 0.49543,1.1437 0.49586,-1.14324 z m -129.13408,4.5e-4 -0.49542,1.14325 0.49542,1.14279 0.49542,-1.14325 z m 14.34813,0 -0.495419,1.14325 0.495419,1.14279 0.49543,-1.14325 z m 7.174071,0 -0.495422,1.14325 0.495872,1.14324 0.495419,-1.14324 z m 2.391349,0 -0.495419,1.14325 0.495419,1.14324 0.495872,-1.14324 z m 16.739931,0 -0.49585,1.14367 0.495419,1.14282 0.49585,-1.1437 z m 2.39137,0 -0.495871,1.14367 0.495411,1.14282 0.495869,-1.1437 z m 2.391339,0 -0.495858,1.14367 0.495419,1.14282 0.495869,-1.1437 z m 2.39136,0 -0.495869,1.14367 0.495419,1.14282 0.495871,-1.1437 z m 2.391359,0 -0.495429,1.14325 0.495429,1.14279 0.495422,-1.14325 z m 2.391352,0 -0.495421,1.14325 0.495421,1.14279 0.495419,-1.14325 z m 2.39136,0 -0.49543,1.14325 0.49543,1.14279 0.495419,-1.14325 z m 2.391349,0 -0.49542,1.14325 0.49542,1.14279 0.49542,-1.14325 z m 2.39136,0 -0.49542,1.14325 0.49542,1.14279 0.49542,-1.14325 z m 2.39135,0 -0.49542,1.14325 0.49542,1.14279 0.49542,-1.14325 z m 2.39135,0 -0.49542,1.14325 0.49542,1.14279 0.49543,-1.14325 z m 2.39136,0 -0.49543,1.14325 0.49543,1.14279 0.49543,-1.14325 z m 2.39136,0 -0.49542,1.14325 0.49542,1.14279 0.49542,-1.14325 z m 2.39136,0 -0.49543,1.14325 0.49587,1.14324 0.49542,-1.14324 z m 2.39134,0 -0.49541,1.14325 0.49586,1.14324 0.49542,-1.14324 z m 2.39137,0 -0.49544,1.14325 0.49587,1.14324 0.49542,-1.14324 z m 2.39135,0 -0.49542,1.14325 0.49586,1.14324 0.49543,-1.14324 z m 14.34858,0 -0.49587,1.14367 0.49587,1.14282 0.49542,-1.1437 z m 2.39135,0 -0.49587,1.14367 0.49587,1.14282 0.49542,-1.1437 z m 2.39135,0 -0.49587,1.14367 0.49587,1.14282 0.49543,-1.1437 z m 2.39136,0 -0.49586,1.14367 0.49586,1.14282 0.49543,-1.1437 z m 2.39137,0 -0.49544,1.14325 0.49544,1.14279 0.49541,-1.14325 z m 2.39134,0 -0.49541,1.14325 0.49541,1.14279 0.49542,-1.14325 z m 2.39135,0 -0.49542,1.14325 0.49542,1.14279 0.49543,-1.14325 z m 2.39136,0 -0.49542,1.14325 0.49542,1.14279 0.49542,-1.14325 z m 14.34812,0 -0.49541,1.14325 0.49541,1.14324 0.49587,-1.14324 z m -126.50544,0.54698 c -0.21112,0.12201 -0.42307,0.24654 -0.63582,0.37235 l -0.0974,0.22437 0.49542,1.14281 0.49587,-1.1437 z m 133.3365,0.24438 -0.1524,0.35191 0.49587,1.14368 0.44521,-1.02728 c -0.26436,-0.15954 -0.52669,-0.31459 -0.78868,-0.46831 z M 39.192,125.57403 c -0.0452,0.0286 -0.0907,0.0579 -0.13597,0.0867 l 0.0494,0.11375 z m 137.41716,0.67047 -0.49587,1.14414 0.49632,1.14414 0.49542,-1.14414 z m -102.82872,4.5e-4 -0.495859,1.14413 0.495859,1.14369 0.495432,-1.14414 z m 2.391359,0 -0.495869,1.14413 0.495869,1.14369 0.495433,-1.14414 z m 2.391363,0 -0.495872,1.14413 0.495872,1.14369 0.495419,-1.14414 z m 2.391359,0 -0.495871,1.14413 0.495871,1.14369 0.495409,-1.14414 z m 45.436189,0 -0.49587,1.14413 0.49542,1.14369 0.49587,-1.14414 z m 2.39135,0 -0.49587,1.14413 0.49543,1.14369 0.49587,-1.14414 z m 2.39136,0 -0.49587,1.14413 0.49543,1.14369 0.49585,-1.14414 z m 2.39135,0 -0.49586,1.14413 0.49542,1.14369 0.49587,-1.14414 z m -93.26374,4.2e-4 -0.49587,1.14414 0.49542,1.14325 0.49587,-1.14414 z m 4.78271,0 -0.49587,1.14325 0.49587,1.14326 0.49542,-1.14326 z m 2.39135,0 -0.49542,1.14325 0.49542,1.14326 0.49543,-1.14326 z m 2.391371,0 -0.49544,1.14325 0.49544,1.14326 0.495409,-1.14326 z m 2.391339,0 -0.495409,1.14325 0.495409,1.14326 0.495422,-1.14326 z m 2.39136,0 -0.49542,1.14325 0.49542,1.14326 0.495421,-1.14326 z m 4.782711,0 -0.495422,1.14325 0.495422,1.14371 0.495419,-1.14371 z m 2.391349,0 -0.495419,1.14325 0.495419,1.14414 0.495861,-1.14369 z m 2.39136,0 -0.495419,1.1437 0.495858,1.14369 0.495432,-1.14369 z m 2.391352,0 -0.495422,1.1437 0.495422,1.14326 0.495869,-1.14326 z m 2.391359,0 -0.495421,1.14325 0.495421,1.14414 0.495869,-1.14369 z m 2.39136,0 -0.495422,1.1437 0.495861,1.14369 0.495419,-1.14369 z m 11.957209,0 -0.495869,1.14414 0.495869,1.14325 0.495422,-1.14414 z m 2.39136,0 -0.495859,1.14414 0.495859,1.14325 0.495432,-1.14414 z m 2.391359,0 -0.495868,1.14414 0.495868,1.14325 0.495422,-1.14414 z m 2.391363,0 -0.495872,1.14414 0.495872,1.14325 0.495408,-1.14414 z m 2.391338,0 -0.495861,1.14414 0.495861,1.14325 0.49543,-1.14414 z m 2.39136,0 -0.495419,1.1437 0.495419,1.14326 0.495422,-1.14371 z m 2.391352,0 -0.495422,1.1437 0.495422,1.14281 0.49544,-1.14326 z m 2.391368,0 -0.49542,1.1437 0.49542,1.14281 0.49541,-1.14326 z m 2.39135,0 -0.49542,1.1437 0.49542,1.14281 0.49542,-1.14326 z m 2.39135,0 -0.49542,1.1437 0.49542,1.14281 0.49542,-1.14326 z m 2.39136,0 -0.49543,1.1437 0.49543,1.14281 0.49543,-1.14326 z m 2.39136,0 -0.49543,1.1437 0.49543,1.14281 0.49542,-1.14326 z m 2.39135,0 -0.49541,1.1437 0.49541,1.14326 0.49587,-1.14371 z m 2.39135,0 -0.49542,1.1437 0.49542,1.14369 0.49587,-1.14369 z m 2.39136,0 -0.49542,1.1437 0.49542,1.14369 0.49587,-1.14369 z m 2.39135,0 -0.49542,1.1437 0.49542,1.14369 0.49587,-1.14369 z m 2.39136,0 -0.49542,1.1437 0.49542,1.14369 0.49586,-1.14369 z m 2.39136,0 -0.49542,1.1437 0.49542,1.14369 0.49586,-1.14369 z m 11.95722,0 -0.49587,1.14414 0.49542,1.14325 0.49587,-1.14414 z m 2.39136,0 -0.49587,1.14414 0.49542,1.14325 0.49587,-1.14414 z m 2.39135,0 -0.49587,1.14414 0.49542,1.14325 0.49587,-1.14414 z m 2.39135,0 -0.49587,1.14414 0.49543,1.14325 0.49586,-1.14414 z m 2.39135,0 -0.49586,1.14414 0.49542,1.14325 0.49587,-1.14414 z m 2.39137,0 -0.49543,1.1437 0.49543,1.14281 0.49542,-1.14326 z m 2.39135,0 -0.49542,1.1437 0.49542,1.14281 0.49542,-1.14326 z m 4.7827,0 -0.49587,1.14325 0.49587,1.14371 0.49587,-1.14326 z m 2.39136,0 -0.49542,1.14325 0.49542,1.14326 0.49543,-1.14326 z m 2.39137,0 -0.49587,1.14325 0.49587,1.14326 0.49541,-1.14326 z m 2.39135,0 -0.49542,1.14325 0.49542,1.14371 0.49586,-1.14326 z m 2.39135,0 -0.49542,1.14325 0.49542,1.14371 0.49586,-1.14326 z m 2.39135,0 -0.49542,1.1437 0.49542,1.14369 0.49587,-1.14369 z m 2.39137,0 -0.49543,1.14325 0.49543,1.14371 0.49586,-1.14326 z m 2.39135,0 -0.49542,1.14325 0.49542,1.14371 0.49587,-1.14326 z m 2.39135,0 -0.49542,1.1437 0.49587,1.14369 0.49542,-1.14325 z m -131.52543,4.5e-4 -0.49586,1.14368 0.49542,1.14282 0.49586,-1.14371 z m 14.348131,0 -0.495421,1.14324 0.495421,1.14281 0.49543,-1.14326 z m 95.655099,0 -0.49541,1.14324 0.49541,1.14281 0.49542,-1.14326 z m -114.73262,0.12267 c -0.05,0.033 -0.10014,0.0672 -0.15018,0.10045 l -0.399,0.9202 0.49586,1.14369 0.49587,-1.14415 z m 140.86691,0.27104 -0.3248,0.74956 0.49587,1.14369 0.49587,-1.14369 -0.18573,-0.42789 c -0.16112,-0.10986 -0.32062,-0.21403 -0.48121,-0.32167 z m -143.01033,1.19789 c -0.15247,0.10863 -0.30573,0.22215 -0.45854,0.3328 l 0.15728,0.36256 z m 145.51232,0.55586 0.0604,0.1395 0.0311,-0.0725 c -0.0306,-0.0224 -0.061,-0.0448 -0.0915,-0.0671 z m -106.355769,0.61005 -0.495861,1.14413 0.495422,1.14369 0.495868,-1.14413 z m 2.391359,0 -0.49586,1.14413 0.495411,1.14369 0.495869,-1.14413 z m 2.39135,0 -0.495869,1.14413 0.495419,1.14369 0.495871,-1.14413 z m 47.82756,0 -0.49587,1.14413 0.49587,1.14369 0.49541,-1.14413 z m 2.39134,0 -0.49586,1.14413 0.49586,1.14369 0.49543,-1.14413 z m 2.39136,0 -0.49587,1.14413 0.49587,1.14369 0.49542,-1.14413 z m 45.4362,0 -0.49586,1.14413 0.49586,1.14369 0.49587,-1.14369 z m 2.39135,0 -0.49587,1.14369 0.49543,1.14413 0.49586,-1.14413 z m -143.48265,4.2e-4 -0.49586,1.1437 0.49586,1.14369 0.49587,-1.14413 z m 2.39136,0 -0.49586,1.14414 0.49542,1.14325 0.49586,-1.14413 z m 2.39136,0 -0.49587,1.14414 0.49542,1.14325 0.49587,-1.14413 z m 2.39135,0 -0.49587,1.1437 0.49542,1.14326 0.49587,-1.1437 z m 2.39135,0 -0.49542,1.14326 0.49542,1.1437 0.49542,-1.1437 z m 2.39135,0 -0.49541,1.14326 0.49541,1.14324 0.49544,-1.14324 z m 2.391369,0 -0.495429,1.14326 0.495429,1.1437 0.495422,-1.1437 z m 2.391352,0 -0.495422,1.1437 0.495422,1.14326 0.495419,-1.1437 z m 2.39136,0 -0.495422,1.1437 0.495422,1.14326 0.495408,-1.1437 z m 2.391349,0 -0.495419,1.14326 0.495419,1.1437 0.495861,-1.1437 z m 2.39136,0 -0.49543,1.14326 0.49543,1.14413 0.495861,-1.14369 z m 2.391359,0 -0.495429,1.1437 0.495861,1.14369 0.49544,-1.14369 z m 2.391352,0 -0.495422,1.1437 0.495422,1.14369 0.495869,-1.14369 z m 2.391349,0 -0.495419,1.14326 0.495419,1.14413 0.495872,-1.14369 z m 2.391349,0 -0.495419,1.1437 0.495869,1.14369 0.495422,-1.14369 z m 2.391371,0 -0.49543,1.1437 0.495872,1.14369 0.495419,-1.14369 z m 9.565859,0 -0.495868,1.14414 0.495429,1.14325 0.495861,-1.14413 z m 2.391352,0 -0.49585,1.14414 0.495419,1.14325 0.49585,-1.14413 z m 2.39137,0 -0.495871,1.14414 0.495411,1.14325 0.495869,-1.14413 z m 2.391339,0 -0.495858,1.14414 0.495419,1.14325 0.495869,-1.14413 z m 2.39136,0 -0.495869,1.14414 0.495419,1.14325 0.495871,-1.14413 z m 2.391359,0 -0.495868,1.14414 0.495429,1.14325 0.495861,-1.14413 z m 2.391352,0 -0.495421,1.1437 0.495421,1.14326 0.495419,-1.1437 z m 2.39136,0 -0.49543,1.1437 0.49543,1.14326 0.495419,-1.1437 z m 2.391349,0 -0.49542,1.1437 0.49542,1.14326 0.49542,-1.1437 z m 2.39136,0 -0.49542,1.1437 0.49542,1.14326 0.49542,-1.1437 z m 2.39135,0 -0.49542,1.1437 0.49542,1.14326 0.49542,-1.1437 z m 2.39135,0 -0.49542,1.1437 0.49542,1.14326 0.49543,-1.1437 z m 2.39136,0 -0.49543,1.1437 0.49543,1.14326 0.49586,-1.14326 z m 2.39136,0 -0.49542,1.1437 0.49586,1.14369 0.49543,-1.14369 z m 2.39136,0 -0.49543,1.1437 0.49587,1.14369 0.49542,-1.14369 z m 2.39134,0 -0.49541,1.1437 0.49586,1.14369 0.49542,-1.14369 z m 2.39137,0 -0.49544,1.1437 0.49587,1.14369 0.49542,-1.14369 z m 2.39135,0 -0.49542,1.1437 0.49586,1.14369 0.49543,-1.14369 z m 2.39136,0 -0.49542,1.1437 0.49587,1.14369 0.49542,-1.14369 z m 9.56586,0 -0.49586,1.14414 0.49586,1.14325 0.49543,-1.14413 z m 2.39136,0 -0.49587,1.14414 0.49587,1.14325 0.49542,-1.14413 z m 2.39135,0 -0.49587,1.14414 0.49587,1.14325 0.49542,-1.14413 z m 2.39135,0 -0.49587,1.14414 0.49587,1.14325 0.49543,-1.14413 z m 2.39136,0 -0.49586,1.14414 0.49586,1.14325 0.49543,-1.14413 z m 2.39137,0 -0.49587,1.14414 0.49587,1.14325 0.49541,-1.14413 z m 2.39134,0 -0.49541,1.1437 0.49541,1.14326 0.49542,-1.1437 z m 4.78271,0 -0.49587,1.14326 0.49587,1.1437 0.49587,-1.14326 z m 2.39136,0 -0.49542,1.14326 0.49542,1.14324 0.49542,-1.14324 z m 2.39135,0 -0.49587,1.14326 0.49587,1.1437 0.49542,-1.1437 z m 2.39136,0 -0.49543,1.14326 0.49543,1.1437 0.49587,-1.14326 z m 2.39135,0 -0.49542,1.14326 0.49542,1.14413 0.49587,-1.14369 z m 2.39136,0 -0.49542,1.1437 0.49542,1.14369 0.49587,-1.14369 z m 2.39134,0 -0.49585,1.14326 0.49585,1.14413 0.49587,-1.14369 z m 2.39137,0 -0.49587,1.14326 0.49587,1.14413 0.49586,-1.14369 z m 2.39136,0 -0.49543,1.1437 0.49586,1.14369 0.49543,-1.14325 z m 2.39135,0 -0.49587,1.14326 0.49632,1.14413 0.49542,-1.14325 z m -141.09085,4.5e-4 -0.49587,1.14368 0.49587,1.14325 0.49587,-1.14369 z m 117.17729,0 -0.49542,1.14324 0.49542,1.1428 0.49543,-1.14324 z m 31.00143,0.19859 -0.40922,0.94421 0.49585,1.14413 0.49544,-1.14413 -0.33769,-0.7789 c -0.0833,-0.0562 -0.17267,-0.1175 -0.24438,-0.16531 z m -150.116419,1.04154 c -0.22172,0.15877 -0.446031,0.32018 -0.69048,0.50074 l 0.236829,0.54608 z m 152.381589,0.55629 0.21238,0.49053 0.10798,-0.24881 c -0.10656,-0.0801 -0.21706,-0.16517 -0.32036,-0.24172 z m -154.030919,0.96108 -0.495871,1.14414 0.495871,1.14368 0.49587,-1.14368 z m 45.436188,0 -0.495869,1.14414 0.495869,1.14368 0.495433,-1.14414 z m 2.391363,0 -0.495872,1.14414 0.495872,1.14368 0.495419,-1.14414 z m 50.218898,0 -0.49587,1.14414 0.49543,1.14368 0.49587,-1.14414 z m 2.39136,0 -0.49587,1.14414 0.49543,1.14368 0.49585,-1.14414 z m 47.82755,0 -0.49587,1.14368 0.49542,1.14414 0.49587,-1.14414 z m 2.39135,0 -0.49587,1.14414 0.49587,1.14368 0.49587,-1.14414 z m -148.26536,4.2e-4 -0.495869,1.14413 0.495869,1.14326 0.49587,-1.14368 z m 2.39135,0 -0.49585,1.14413 0.49585,1.14326 0.49587,-1.14414 z m 2.39136,0 -0.49586,1.14413 0.49586,1.14326 0.49543,-1.14414 z m 2.39136,0 -0.49587,1.14413 0.49542,1.14326 0.49587,-1.14414 z m 2.39135,0 -0.49586,1.14371 0.49542,1.14324 0.49586,-1.1437 z m 2.39136,0 -0.49587,1.14371 0.49543,1.14368 0.49586,-1.14414 z m 2.39135,0 -0.49542,1.14325 0.49542,1.14324 0.49543,-1.14324 z m 2.391371,0 -0.49544,1.14325 0.49544,1.1437 0.495859,-1.1437 z m 2.391339,0 -0.495409,1.14371 0.495409,1.14324 0.495871,-1.1437 z m 2.39136,0 -0.49542,1.14371 0.49542,1.14324 0.495421,-1.1437 z m 2.391351,0 -0.495421,1.14325 0.495421,1.1437 0.495869,-1.14324 z m 2.39136,0 -0.495422,1.14371 0.495422,1.14368 0.495869,-1.14368 z m 2.391349,0 -0.495419,1.14371 0.495869,1.14368 0.495411,-1.14368 z m 2.39136,0 -0.495419,1.14371 0.495419,1.14368 0.495871,-1.14368 z m 2.391352,0 -0.495422,1.14325 0.495422,1.14414 0.495869,-1.14368 z m 2.391359,0 -0.495421,1.14371 0.495871,1.14368 0.495419,-1.14368 z m 2.39136,0 -0.495422,1.14371 0.495861,1.14368 0.495419,-1.14326 z m 2.391349,0 -0.495419,1.14371 0.495859,1.14368 0.495432,-1.14368 z m 7.174521,0 -0.495871,1.14413 0.495871,1.14326 0.495409,-1.14414 z m 2.391339,0 -0.495869,1.14413 0.495869,1.14326 0.495422,-1.14414 z m 2.39136,0 -0.495859,1.14413 0.495859,1.14326 0.495432,-1.14414 z m 2.391359,0 -0.495868,1.14413 0.495868,1.14326 0.495422,-1.14414 z m 2.391363,0 -0.495872,1.14413 0.495872,1.14326 0.495408,-1.14414 z m 2.391338,0 -0.495861,1.14413 0.495861,1.14326 0.49543,-1.14414 z m 2.39136,0 -0.495869,1.14413 0.495869,1.14326 0.495422,-1.14414 z m 2.391352,0 -0.495861,1.14371 0.495861,1.14324 0.49544,-1.1437 z m 2.391368,0 -0.49542,1.14371 0.49542,1.14324 0.49541,-1.1437 z m 2.39135,0 -0.49542,1.14371 0.49542,1.14324 0.49542,-1.1437 z m 2.39135,0 -0.49542,1.14371 0.49542,1.14324 0.49542,-1.1437 z m 2.39136,0 -0.49543,1.14371 0.49543,1.14324 0.49543,-1.1437 z m 2.39136,0 -0.49543,1.14371 0.49543,1.14324 0.49586,-1.14324 z m 2.39135,0 -0.49541,1.14371 0.49541,1.14368 0.49587,-1.14368 z m 2.39135,0 -0.49542,1.14371 0.49542,1.14368 0.49587,-1.14368 z m 2.39136,0 -0.49542,1.14371 0.49542,1.14368 0.49587,-1.14368 z m 2.39135,0 -0.49542,1.14371 0.49542,1.14368 0.49587,-1.14368 z m 2.39136,0 -0.49542,1.14371 0.49542,1.14368 0.49586,-1.14368 z m 2.39136,0 -0.49542,1.14371 0.49542,1.14368 0.49586,-1.14368 z m 2.39135,0 -0.49542,1.14371 0.49542,1.14368 0.49587,-1.14368 z m 7.17451,0 -0.49586,1.14413 0.49542,1.14326 0.49587,-1.14414 z m 2.39136,0 -0.49587,1.14413 0.49542,1.14326 0.49587,-1.14414 z m 2.39136,0 -0.49587,1.14413 0.49542,1.14326 0.49587,-1.14414 z m 2.39135,0 -0.49587,1.14413 0.49542,1.14326 0.49587,-1.14414 z m 2.39135,0 -0.49587,1.14413 0.49543,1.14326 0.49586,-1.14414 z m 2.39135,0 -0.49586,1.14413 0.49542,1.14326 0.49587,-1.14414 z m 2.39137,0 -0.49587,1.14413 0.49542,1.14326 0.49587,-1.14414 z m 2.39135,0 -0.49542,1.14371 0.49542,1.14278 0.49542,-1.14324 z m 2.39135,0 -0.49586,1.14325 0.49586,1.1437 0.49587,-1.14324 z m 2.39135,0 -0.49587,1.14325 0.49587,1.14324 0.49543,-1.14324 z m 2.39136,0 -0.49586,1.14325 0.49586,1.1437 0.49543,-1.1437 z m 2.39137,0 -0.49544,1.14325 0.49544,1.1437 0.49587,-1.14324 z m 2.39135,0 -0.49587,1.14325 0.49587,1.14414 0.49586,-1.14368 z m 2.39135,0 -0.49542,1.14371 0.49542,1.14368 0.49586,-1.14368 z m 2.39135,0 -0.49586,1.14325 0.49586,1.14414 0.49587,-1.14368 z m 2.39137,0 -0.49587,1.14325 0.49587,1.14414 0.49586,-1.14368 z m 2.39135,0 -0.49542,1.14371 0.49586,1.14368 0.49543,-1.14326 z m 2.39135,0 -0.49587,1.14325 0.49632,1.14414 0.49542,-1.14326 z m 2.39135,0 -0.49542,1.14371 0.49587,1.14368 0.49542,-1.14326 z m 7.17451,0 -0.49585,1.14413 0.49541,1.14326 0.49587,-1.14414 z m 2.35226,0.0898 -0.45677,1.05394 0.49587,1.14368 0.49542,-1.14414 -0.41589,-0.95973 c -0.0397,-0.0315 -0.0791,-0.0625 -0.11863,-0.0937 z M 28.7708,133.06493 c -0.206749,0.17708 -0.413119,0.35698 -0.61939,0.54075 l 0.19285,0.44387 z m 159.69117,0.74425 0.10442,0.24037 0.0449,-0.10397 c -0.0497,-0.0455 -0.0994,-0.0912 -0.14929,-0.1364 z m -158.92204,0.71092 -0.495869,1.14413 0.495869,1.14368 0.495871,-1.14413 z m 47.82755,0 -0.49586,1.14413 0.495411,1.14368 0.49631,-1.14413 z m 52.61025,0 -0.49586,1.14413 0.49586,1.14368 0.49587,-1.14413 z m 50.21891,0 -0.49587,1.14413 0.49587,1.14368 0.49587,-1.14413 z m 4.78272,0 -0.49587,1.14413 0.49587,1.14368 0.49586,-1.14413 z m -153.04807,4.2e-4 -0.495869,1.14414 0.495869,1.14324 0.495861,-1.14413 z m 2.39135,0 -0.49587,1.14414 0.49587,1.14324 0.49587,-1.14413 z m 2.39135,0 -0.49586,1.14414 0.49586,1.14324 0.49587,-1.14413 z m 2.39136,0 -0.49586,1.14414 0.49542,1.14324 0.4963,-1.14413 z m 2.39136,0 -0.49587,1.1437 0.49542,1.14368 0.49587,-1.14413 z m 2.39135,0 -0.49587,1.1437 0.49542,1.14368 0.49587,-1.14413 z m 2.39135,0 -0.49586,1.14414 0.49542,1.14324 0.49586,-1.14413 z m 2.39135,0 -0.49585,1.14325 0.49585,1.14371 0.49587,-1.14371 z m 2.391369,0 -0.495429,1.1437 0.495429,1.14326 0.495861,-1.14326 z m 2.391352,0 -0.495422,1.1437 0.495422,1.14326 0.495869,-1.14371 z m 2.39136,0 -0.495422,1.14325 0.495422,1.14371 0.495861,-1.14326 z m 2.391349,0 -0.495419,1.1437 0.495419,1.14368 0.495861,-1.14368 z m 2.39136,0 -0.49543,1.1437 0.495871,1.14368 0.49542,-1.14324 z m 2.391359,0 -0.495429,1.1437 0.495429,1.14368 0.495872,-1.14368 z m 2.391352,0 -0.495871,1.14325 0.495871,1.14413 0.495869,-1.14368 z m 2.391349,0 -0.495419,1.1437 0.495869,1.14368 0.495422,-1.14324 z m 2.391349,0 -0.495419,1.1437 0.495869,1.14368 0.495422,-1.14324 z m 2.391371,0 -0.49543,1.1437 0.49543,1.14368 0.495861,-1.14324 z m 2.391352,0 -0.495422,1.1437 0.495422,1.14368 0.495868,-1.14324 z m 4.783148,0 -0.495869,1.14414 0.495419,1.14324 0.496321,-1.14413 z m 2.391359,0 -0.495868,1.14414 0.495429,1.14324 0.496311,-1.14413 z m 2.391352,0 -0.49585,1.14414 0.495419,1.14324 0.4963,-1.14413 z m 2.39137,0 -0.495871,1.14414 0.495411,1.14324 0.496311,-1.14413 z m 2.391339,0 -0.495858,1.14414 0.495419,1.14324 0.4963,-1.14413 z m 2.39136,0 -0.495869,1.14414 0.495419,1.14324 0.496321,-1.14413 z m 2.391359,0 -0.495868,1.14414 0.495429,1.14324 0.496311,-1.14413 z m 2.391352,0 -0.495861,1.14414 0.495422,1.14324 0.496308,-1.14413 z m 2.39136,0 -0.495871,1.1437 0.495871,1.14326 0.495861,-1.14371 z m 2.391349,0 -0.49542,1.1437 0.49542,1.14326 0.49587,-1.14371 z m 2.39136,0 -0.49542,1.1437 0.49542,1.14326 0.49587,-1.14371 z m 2.39135,0 -0.49542,1.1437 0.49542,1.14326 0.49587,-1.14371 z m 2.39135,0 -0.49542,1.1437 0.49542,1.14326 0.49587,-1.14326 z m 2.39136,0 -0.49543,1.1437 0.49587,1.14368 0.49542,-1.14324 z m 2.39136,0 -0.49542,1.1437 0.49586,1.14368 0.49543,-1.14324 z m 2.39136,0 -0.49543,1.1437 0.49587,1.14368 0.49542,-1.14324 z m 2.39134,0 -0.49541,1.1437 0.49586,1.14368 0.49542,-1.14324 z m 2.39137,0 -0.49544,1.1437 0.49587,1.14368 0.49542,-1.14324 z m 2.39135,0 -0.49542,1.1437 0.49586,1.14368 0.49543,-1.14324 z m 2.39136,0 -0.49542,1.1437 0.49587,1.14368 0.49542,-1.14324 z m 2.39134,0 -0.49541,1.1437 0.49587,1.14368 0.49541,-1.14324 z m 4.78316,0 -0.49587,1.14414 0.49587,1.14324 0.49587,-1.14413 z m 2.39136,0 -0.49586,1.14414 0.49586,1.14324 0.49587,-1.14413 z m 2.39136,0 -0.49587,1.14414 0.49587,1.14324 0.49586,-1.14413 z m 2.39135,0 -0.49587,1.14414 0.49587,1.14324 0.49587,-1.14413 z m 2.39135,0 -0.49587,1.14414 0.49587,1.14324 0.49587,-1.14413 z m 2.39136,0 -0.49586,1.14414 0.49586,1.14324 0.49587,-1.14413 z m 2.39137,0 -0.49587,1.14414 0.49587,1.14324 0.49585,-1.14413 z m 2.39134,0 -0.49587,1.14414 0.49542,1.14324 0.49587,-1.14413 z m 2.39135,0 -0.49586,1.14325 0.49586,1.14371 0.49587,-1.14326 z m 2.39136,0 -0.49587,1.14325 0.49587,1.14371 0.49542,-1.14371 z m 2.39136,0 -0.49586,1.14325 0.49586,1.14371 0.49586,-1.14371 z m 2.39135,0 -0.49587,1.14325 0.49587,1.14371 0.49586,-1.14326 z m 2.39136,0 -0.49587,1.14325 0.49587,1.14413 0.49587,-1.14368 z m 2.39135,0 -0.49542,1.1437 0.49542,1.14368 0.49587,-1.14324 z m 2.39136,0 -0.49587,1.14325 0.49587,1.14413 0.49587,-1.14368 z m 2.39134,0 -0.49585,1.14325 0.49585,1.14413 0.49587,-1.14368 z m 2.39137,0 -0.49543,1.1437 0.49587,1.14414 0.49542,-1.1437 z m 2.39136,0 -0.49587,1.14325 0.4963,1.14413 0.49543,-1.14324 z m 2.39135,0 -0.49542,1.1437 0.49587,1.14414 0.49542,-1.1437 z m 2.39135,0 -0.49541,1.1437 0.49541,1.14368 0.49587,-1.14368 z m 4.78315,0 -0.49585,1.14414 0.49542,1.14324 0.4963,-1.14413 z m 4.78273,0 -0.49587,1.14414 0.49587,1.14324 0.49586,-1.14413 z m -160.218139,0.009 c -0.004,0.004 -0.009,0.008 -0.0138,0.0129 l -0.48609,1.12194 0.49586,1.14368 0.49587,-1.14414 z m 162.449969,0.35858 -0.33636,0.77623 0.49542,1.14368 0.49587,-1.14414 -0.0834,-0.19328 c -0.18709,-0.196 -0.37744,-0.39038 -0.57141,-0.58249 z m -161.25829,2.39047 -0.49587,1.14413 0.495421,1.14368 0.496299,-1.14413 z m 126.7427,0 -0.49587,1.14368 0.49587,1.1437 0.49587,-1.1437 z m 33.47943,0 -0.49587,1.14413 0.49542,1.14368 0.49587,-1.14413 z m -162.61394,4.3e-4 -0.495419,1.14371 0.495859,1.14368 0.495431,-1.14325 z m 4.783161,0 -0.495871,1.14414 0.495421,1.14325 0.49632,-1.14413 z m 2.391349,0 -0.495869,1.14414 0.495869,1.14325 0.49587,-1.14413 z m 2.39135,0 -0.49585,1.14414 0.49585,1.14325 0.49587,-1.14413 z m 2.39136,0 -0.49586,1.14414 0.49542,1.14325 0.49631,-1.14413 z m 2.39136,0 -0.49587,1.14371 0.49542,1.14368 0.49587,-1.14413 z m 2.39135,0 -0.49586,1.14414 0.49542,1.14325 0.49631,-1.14413 z m 2.39136,0 -0.49587,1.14414 0.49543,1.14325 0.49586,-1.14413 z m 2.39135,0 -0.49586,1.14414 0.49586,1.14325 0.49587,-1.14368 z m 2.391371,0 -0.49544,1.14371 0.49544,1.14325 0.495859,-1.14325 z m 2.391339,0 -0.495409,1.14371 0.495409,1.14325 0.495871,-1.1437 z m 2.39136,0 -0.495869,1.14371 0.495869,1.14325 0.495871,-1.14325 z m 2.391351,0 -0.495871,1.14371 0.495871,1.14368 0.495869,-1.14325 z m 2.39136,0 -0.495422,1.14371 0.495872,1.14368 0.495419,-1.14325 z m 2.391349,0 -0.495419,1.14371 0.495419,1.14368 0.495861,-1.14368 z m 2.39136,0 -0.495869,1.14326 0.495869,1.14413 0.495871,-1.14368 z m 2.391352,0 -0.495422,1.14371 0.495872,1.14368 0.495419,-1.14325 z m 2.391359,0 -0.495421,1.14371 0.495871,1.14368 0.495419,-1.14325 z m 2.39136,0 -0.495421,1.14371 0.49586,1.14368 0.495419,-1.14325 z m 2.391349,0 -0.495419,1.14371 0.495859,1.14368 0.495432,-1.14325 z m 2.39136,0 -0.49543,1.14371 0.495869,1.14368 0.495433,-1.14325 z m 2.391802,0 -0.495872,1.14414 0.495872,1.14325 0.495869,-1.14413 z m 2.391359,0 -0.495871,1.14414 0.495871,1.14325 0.495859,-1.14413 z m 2.391339,0 -0.495869,1.14414 0.495869,1.14325 0.495871,-1.14413 z m 2.39136,0 -0.495859,1.14414 0.495859,1.14325 0.495861,-1.14413 z m 2.391359,0 -0.495868,1.14414 0.495868,1.14325 0.495861,-1.14413 z m 2.391363,0 -0.495872,1.14414 0.495872,1.14325 0.495869,-1.14413 z m 2.391338,0 -0.495861,1.14414 0.495861,1.14325 0.495872,-1.14413 z m 2.39136,0 -0.495869,1.14414 0.495869,1.14325 0.495872,-1.14413 z m 2.391352,0 -0.495861,1.14414 0.495861,1.14325 0.495869,-1.14413 z m 2.391368,0 -0.495869,1.14371 0.495869,1.14368 0.49587,-1.14413 z m 2.39135,0 -0.49542,1.14371 0.49542,1.14325 0.49586,-1.1437 z m 2.39135,0 -0.49542,1.14371 0.49542,1.14325 0.49587,-1.1437 z m 2.39136,0 -0.49543,1.14371 0.49543,1.14368 0.49587,-1.14368 z m 2.39136,0 -0.49543,1.14371 0.49543,1.14368 0.49586,-1.14325 z m 2.39135,0 -0.49541,1.14371 0.49541,1.14368 0.49587,-1.14325 z m 2.39135,0 -0.49542,1.14371 0.49542,1.14368 0.49587,-1.14325 z m 2.39136,0 -0.49542,1.14371 0.49542,1.14368 0.49587,-1.14325 z m 2.39135,0 -0.49542,1.14371 0.49542,1.14368 0.49587,-1.14325 z m 2.39136,0 -0.49542,1.14371 0.49542,1.14368 0.49586,-1.14325 z m 2.39136,0 -0.49542,1.14371 0.49542,1.14368 0.49586,-1.14325 z m 2.39135,0 -0.49542,1.14371 0.49542,1.14368 0.49587,-1.14325 z m 2.39136,0 -0.49543,1.14371 0.49543,1.14368 0.49587,-1.14325 z m 2.3918,0 -0.49587,1.14414 0.49543,1.14325 0.49631,-1.14413 z m 2.39135,0 -0.49586,1.14414 0.49542,1.14325 0.4963,-1.14413 z m 2.39136,0 -0.49587,1.14414 0.49542,1.14325 0.49631,-1.14413 z m 2.39136,0 -0.49587,1.14414 0.49542,1.14325 0.49631,-1.14413 z m 2.39135,0 -0.49587,1.14414 0.49542,1.14325 0.49632,-1.14413 z m 2.39135,0 -0.49587,1.14414 0.49543,1.14325 0.49631,-1.14413 z m 2.39135,0 -0.49586,1.14414 0.49542,1.14325 0.49631,-1.14413 z m 2.39137,0 -0.49587,1.14414 0.49542,1.14325 0.49587,-1.14413 z m 2.39135,0 -0.49586,1.14371 0.49586,1.14413 0.49587,-1.14413 z m 2.39135,0 -0.49586,1.14326 0.49586,1.1437 0.49542,-1.1437 z m 4.78271,0 -0.49586,1.14326 0.49586,1.1437 0.49587,-1.14325 z m 2.39137,0 -0.49587,1.14326 0.49587,1.14413 0.49587,-1.14368 z m 2.39135,0 -0.49542,1.14371 0.49542,1.14368 0.49586,-1.14325 z m 2.39135,0 -0.49587,1.14326 0.49587,1.14413 0.49586,-1.14368 z m 2.39135,0 -0.49586,1.14326 0.49586,1.14413 0.49587,-1.14368 z m 2.39137,0 -0.49543,1.14371 0.49586,1.14413 0.49543,-1.1437 z m 2.39135,0 -0.49587,1.14326 0.49631,1.14413 0.49543,-1.14325 z m 2.39135,0 -0.49542,1.14371 0.49587,1.14413 0.49542,-1.1437 z m 2.39135,0 -0.49587,1.14371 0.49587,1.14368 0.49587,-1.14368 z m 2.39136,0 -0.49542,1.14371 0.49587,1.14368 0.49542,-1.14325 z m 2.3918,0 -0.49587,1.14414 0.49587,1.14325 0.49587,-1.14413 z m 2.39135,0 -0.49585,1.14371 0.49585,1.14368 0.49587,-1.14368 z m 2.39136,0 -0.49587,1.14414 0.49543,1.14325 0.4963,-1.14413 z m 4.78272,0 -0.49587,1.14414 0.49587,1.1437 0.49586,-1.14413 z m -166.9781,0.96596 c -0.21116,0.3301 -0.39981,0.65978 -0.56296,0.98819 l 0.14485,0.33324 0.49542,-1.14325 z m 125.12893,1.79198 -0.49587,1.14414 0.49587,1.14413 0.49587,-1.14413 z m 4.78271,0 -0.49587,1.14368 0.49587,1.14371 0.49587,-1.14371 z m 33.47943,0 -0.49587,1.14414 0.49541,1.14368 0.49587,-1.14414 z m -162.61394,4.2e-4 -0.49542,1.14371 0.49586,1.14413 0.49543,-1.14371 z m 2.39135,0 -0.49542,1.14371 0.49542,1.14368 0.49587,-1.14368 z m 2.3918,0 -0.495869,1.14371 0.495419,1.14368 0.496321,-1.14414 z m 2.39136,0 -0.495869,1.14413 0.495419,1.14326 0.496311,-1.14414 z m 2.39135,0 -0.49587,1.14413 0.49587,1.14371 0.49587,-1.14413 z m 2.39135,0 -0.49586,1.14413 0.49542,1.14326 0.49631,-1.14414 z m 2.39136,0 -0.49586,1.14371 0.49542,1.14368 0.49586,-1.14414 z m 2.39136,0 -0.49587,1.14413 0.49542,1.14326 0.49632,-1.14414 z m 2.39135,0 -0.49587,1.14413 0.49542,1.14326 0.49587,-1.14414 z m 2.39135,0 -0.49586,1.14413 0.49586,1.14371 0.49587,-1.14413 z m 2.39135,0 -0.49585,1.14413 0.49585,1.14371 0.49587,-1.14413 z m 2.391369,0 -0.495429,1.14371 0.495429,1.14325 0.495861,-1.14371 z m 2.391352,0 -0.495861,1.14371 0.495861,1.14368 0.495869,-1.14368 z m 2.39136,0 -0.495872,1.14371 0.495872,1.14368 0.495861,-1.14326 z m 2.391349,0 -0.495419,1.14371 0.495858,1.14368 0.495422,-1.14326 z m 2.39136,0 -0.49543,1.14371 0.49543,1.14368 0.495861,-1.14368 z m 2.391359,0 -0.495869,1.14325 0.495869,1.14414 0.495872,-1.14326 z m 2.391352,0 -0.495871,1.14371 0.496321,1.14368 0.495419,-1.14326 z m 2.391349,0 -0.495869,1.14371 0.496319,1.14413 0.495422,-1.14371 z m 2.391349,0 -0.495858,1.14371 0.495858,1.14368 0.495872,-1.14326 z m 2.391371,0 -0.495869,1.14371 0.495869,1.14368 0.495861,-1.14326 z m 2.391352,0 -0.495861,1.14371 0.495861,1.14368 0.495868,-1.14326 z m 4.783148,0 -0.495869,1.14413 0.495419,1.14326 0.496321,-1.14414 z m 2.391359,0 -0.495869,1.14413 0.49543,1.14326 0.496311,-1.14414 z m 2.391352,0 -0.49585,1.14413 0.495419,1.14326 0.4963,-1.14414 z m 2.39137,0 -0.495871,1.14413 0.495411,1.14326 0.496311,-1.14414 z m 2.391339,0 -0.495858,1.14413 0.495419,1.14326 0.4963,-1.14414 z m 2.39136,0 -0.495869,1.14413 0.495419,1.14326 0.496321,-1.14414 z m 2.391359,0 -0.495868,1.14413 0.495429,1.14326 0.496311,-1.14414 z m 2.391352,0 -0.495861,1.14413 0.495422,1.14326 0.496308,-1.14414 z m 2.39136,0 -0.495872,1.14413 0.495422,1.14326 0.496311,-1.14414 z m 2.391349,0 -0.49587,1.14371 0.49587,1.14368 0.49587,-1.14414 z m 2.39136,0 -0.49587,1.14371 0.49587,1.14325 0.49587,-1.14371 z m 2.39135,0 -0.49585,1.14371 0.49585,1.14368 0.49587,-1.14368 z m 2.39135,0 -0.49586,1.14371 0.49631,1.14368 0.49542,-1.14326 z m 2.39136,0 -0.49587,1.14371 0.49631,1.14368 0.49542,-1.14326 z m 2.39136,0 -0.49587,1.14371 0.49631,1.14368 0.49543,-1.14326 z m 2.39136,0 -0.49587,1.14371 0.49631,1.14368 0.49542,-1.14326 z m 2.39134,0 -0.49586,1.14371 0.49631,1.14368 0.49542,-1.14326 z m 2.39137,0 -0.49587,1.14371 0.4963,1.14368 0.49542,-1.14326 z m 2.39135,0 -0.49587,1.14371 0.49631,1.14368 0.49543,-1.14326 z m 2.39136,0 -0.49587,1.14371 0.49632,1.14368 0.49542,-1.14326 z m 2.39134,0 -0.49586,1.14371 0.49632,1.14368 0.49541,-1.14326 z m 4.78316,0 -0.49587,1.14413 0.49587,1.14326 0.49587,-1.14414 z m 2.39136,0 -0.49586,1.14413 0.49586,1.14326 0.49587,-1.14414 z m 2.39136,0 -0.49587,1.14413 0.49587,1.14326 0.49586,-1.14414 z m 2.39135,0 -0.49587,1.14413 0.49587,1.14326 0.49587,-1.14414 z m 2.39135,0 -0.49587,1.14413 0.49587,1.14326 0.49587,-1.14414 z m 2.39136,0 -0.49586,1.14413 0.49586,1.14326 0.49587,-1.14414 z m 2.39137,0 -0.49587,1.14413 0.49541,1.14326 0.49631,-1.14414 z m 4.78269,0 -0.49586,1.14413 0.49542,1.14326 0.49631,-1.14414 z m 4.78272,0 -0.49586,1.14371 0.49586,1.14325 0.49586,-1.14325 z m 2.39135,0 -0.49587,1.14325 0.49587,1.14414 0.49586,-1.14368 z m 2.39136,0 -0.49587,1.14371 0.49587,1.14368 0.49587,-1.14326 z m 2.39135,0 -0.49587,1.14325 0.49587,1.14414 0.49587,-1.14368 z m 2.39136,0 -0.49587,1.14325 0.49587,1.14414 0.49587,-1.14368 z m 2.39134,0 -0.49585,1.14371 0.49631,1.14413 0.49541,-1.14371 z m 2.39137,0 -0.49587,1.14325 0.49631,1.14459 0.49542,-1.14371 z m 2.39136,0 -0.49543,1.14371 0.49586,1.14413 0.49543,-1.14371 z m 2.39135,0 -0.49587,1.14371 0.49587,1.14368 0.49587,-1.14368 z m 2.39135,0 -0.49541,1.14371 0.49586,1.14368 0.49542,-1.14326 z m 4.78315,0 -0.49585,1.14371 0.49585,1.14413 0.49587,-1.14413 z m 2.39137,0 -0.49587,1.14413 0.49542,1.14326 0.49631,-1.14414 z m 4.7827,0 -0.49587,1.14413 0.49587,1.14371 0.49587,-1.14413 z m 2.39136,0 -0.49587,1.14413 0.49543,1.14326 0.49631,-1.14414 z m -114.78594,4.5e-4 -0.49586,1.14368 0.495411,1.14326 0.495869,-1.14326 z m 52.61025,0 -0.49586,1.14368 0.49586,1.14326 0.49543,-1.14326 z m 50.21847,0 -0.49543,1.14368 0.49587,1.14371 0.49542,-1.14371 z m -157.39667,1.00062 c -0.0218,0.13295 -0.0384,0.26517 -0.048,0.39635 l 0.10974,-0.25328 z m 125.11338,1.75688 -0.49587,1.14413 0.49587,1.14414 0.49586,-1.14414 z m 4.7827,0 -0.49586,1.14413 0.49541,1.14414 0.49632,-1.14414 z m 33.47942,0 -0.49587,1.14413 0.49543,1.14368 0.4963,-1.14413 z m 7.17407,0 -0.49586,1.14456 0.12129,0.27993 c 0.19822,-0.40006 0.36303,-0.79768 0.47632,-1.1899 z m -169.788,4.2e-4 -0.39011,0.90023 c 0.14435,0.3522 0.32579,0.70721 0.53096,1.06326 l 0.35501,-0.81935 z m 2.39135,0 -0.495419,1.14371 0.495419,1.14368 0.495871,-1.14368 z m 4.783161,0 -0.495871,1.14413 0.495421,1.14325 0.49632,-1.14413 z m 2.391349,0 -0.495869,1.14413 0.495869,1.14371 0.49587,-1.14414 z m 2.39135,0 -0.49585,1.14413 0.49542,1.14371 0.4963,-1.14459 z m 2.39136,0 -0.49586,1.14413 0.49542,1.14325 0.49587,-1.14413 z m 2.39136,0 -0.49587,1.14413 0.49542,1.14325 0.49631,-1.14413 z m 2.39135,0 -0.49586,1.14413 0.49542,1.14325 0.49631,-1.14413 z m 2.39136,0 -0.49587,1.14413 0.49587,1.14371 0.49587,-1.14414 z m 2.39135,0 -0.49586,1.14413 0.49586,1.14371 0.49587,-1.14414 z m 2.391371,0 -0.495871,1.14413 0.495411,1.14371 0.496319,-1.14459 z m 2.391339,0 -0.495869,1.14371 0.495869,1.14368 0.495871,-1.14368 z m 2.39136,0 -0.495869,1.14371 0.495869,1.14414 0.495871,-1.14371 z m 2.391351,0 -0.495871,1.14371 0.496321,1.14414 0.495419,-1.14371 z m 2.39136,0 -0.495861,1.14371 0.495861,1.14368 0.495869,-1.14368 z m 2.391349,0 -0.495861,1.14325 0.495861,1.14413 0.495861,-1.14325 z m 2.39136,0 -0.495869,1.14371 0.496308,1.14414 0.495432,-1.14371 z m 2.391352,0 -0.495861,1.14371 0.496311,1.14414 0.495419,-1.14371 z m 2.391359,0 -0.49586,1.14371 0.49631,1.14414 0.495419,-1.14371 z m 2.39136,0 -0.495871,1.14371 0.49631,1.14414 0.495419,-1.14371 z m 2.391349,0 -0.495868,1.14371 0.496308,1.14414 0.495432,-1.14371 z m 7.174521,0 -0.495871,1.14413 0.495871,1.14371 0.495859,-1.14414 z m 2.391339,0 -0.495869,1.14413 0.495869,1.14371 0.495871,-1.14414 z m 2.39136,0 -0.495859,1.14413 0.495859,1.14371 0.495861,-1.14414 z m 2.391359,0 -0.495868,1.14413 0.495868,1.14371 0.495861,-1.14414 z m 2.391363,0 -0.495872,1.14413 0.495872,1.14371 0.495869,-1.14414 z m 2.391338,0 -0.495861,1.14413 0.495861,1.14371 0.495872,-1.14414 z m 2.39136,0 -0.495869,1.14413 0.495869,1.14371 0.495872,-1.14414 z m 2.391352,0 -0.495861,1.14413 0.495861,1.14371 0.495869,-1.14414 z m 2.391368,0 -0.495869,1.14413 0.495869,1.14371 0.49587,-1.14414 z m 2.39135,0 -0.49587,1.14371 0.49587,1.14368 0.49586,-1.14368 z m 2.39135,0 -0.49587,1.14371 0.49587,1.14368 0.49587,-1.14368 z m 2.39136,0 -0.49586,1.14371 0.49586,1.14414 0.49587,-1.14371 z m 2.39136,0 -0.49587,1.14371 0.49587,1.14414 0.49586,-1.14371 z m 2.39135,0 -0.49587,1.14371 0.49587,1.14414 0.49587,-1.14371 z m 2.39135,0 -0.49587,1.14371 0.49587,1.14414 0.49587,-1.14371 z m 2.39136,0 -0.49587,1.14371 0.49587,1.14414 0.49587,-1.14371 z m 2.39135,0 -0.49585,1.14371 0.49585,1.14414 0.49587,-1.14371 z m 2.39136,0 -0.49586,1.14371 0.49586,1.14414 0.49586,-1.14371 z m 2.39136,0 -0.49587,1.14371 0.49587,1.14414 0.49586,-1.14371 z m 2.39135,0 -0.49587,1.14371 0.49587,1.14414 0.49587,-1.14371 z m 7.17451,0 -0.49586,1.14413 0.49542,1.14371 0.4963,-1.14414 z m 2.39136,0 -0.49587,1.14413 0.49542,1.14371 0.49631,-1.14414 z m 2.39136,0 -0.49587,1.14413 0.49542,1.14371 0.49631,-1.14414 z m 2.39135,0 -0.49587,1.14413 0.49542,1.14371 0.49632,-1.14414 z m 2.39135,0 -0.49587,1.14413 0.49543,1.14371 0.49631,-1.14414 z m 2.39135,0 -0.49586,1.14413 0.49542,1.14325 0.49631,-1.14413 z m 4.78272,0 -0.49586,1.14413 0.49541,1.14325 0.49632,-1.14413 z m 4.7827,0 -0.49587,1.14371 0.49587,1.14368 0.49587,-1.14368 z m 2.39136,0 -0.49586,1.14371 0.49586,1.14368 0.49587,-1.14325 z m 2.39137,0 -0.49587,1.14371 0.49587,1.14414 0.49587,-1.14371 z m 2.39135,0 -0.49587,1.14325 0.49587,1.14413 0.49586,-1.14325 z m 2.39135,0 -0.49587,1.14325 0.49587,1.14413 0.49586,-1.14325 z m 2.39135,0 -0.49586,1.14371 0.49631,1.14414 0.49542,-1.14371 z m 2.39137,0 -0.49587,1.14325 0.4963,1.14459 0.49543,-1.14371 z m 2.39135,0 -0.49542,1.14371 0.49586,1.14414 0.49543,-1.14371 z m 2.39135,0 -0.49587,1.14371 0.49587,1.14368 0.49587,-1.14368 z m 2.39135,0 -0.49587,1.14371 0.49632,1.14414 0.49542,-1.14371 z m 7.17451,0 -0.49585,1.14413 0.49541,1.14325 0.49631,-1.14413 z m 4.78272,0 -0.49587,1.14413 0.49587,1.14371 0.49587,-1.14414 z m 2.39136,0 -0.49587,1.14371 0.49543,1.14414 0.4963,-1.14414 z m -162.613939,4.5e-4 -0.495421,1.14325 0.495421,1.14368 0.49587,-1.14325 z m 47.827988,0 -0.495869,1.14368 0.495869,1.14371 0.495433,-1.14371 z m 2.391363,0 -0.495872,1.14368 0.495872,1.14371 0.495419,-1.14371 z m 50.218898,0 -0.49587,1.14368 0.49543,1.14371 0.49587,-1.14371 z m 2.39136,0 -0.49587,1.14368 0.49543,1.14371 0.49585,-1.14371 z m 47.8271,0 -0.49542,1.14368 0.49587,1.14371 0.49542,-1.14371 z m 2.39136,0 -0.49543,1.14368 0.49587,1.14371 0.49542,-1.14371 z m -34.67464,2.75749 -0.49587,1.14456 0.49587,1.1437 0.49585,-1.14413 z m 4.78269,0 -0.49586,1.14456 0.49542,1.1437 0.49631,-1.14413 z m 16.73948,0 -0.49585,1.14368 0.49631,1.14458 0.49541,-1.1437 z m 16.73995,0 -0.49587,1.14413 0.49542,1.14368 0.49631,-1.14413 z m 4.7827,0 -0.49587,1.14413 0.49587,1.14413 0.49587,-1.14413 z m -165.00528,5.3e-4 -0.21061,0.48611 c 0.20135,0.27053 0.41749,0.5395 0.6416,0.80732 l 0.0649,-0.14973 z m 2.39135,0 -0.495869,1.1437 0.495869,1.14368 0.49587,-1.14324 z m 4.78316,0 -0.495869,1.14413 0.495869,1.1437 0.495861,-1.14413 z m 2.39135,0 -0.49587,1.14413 0.49543,1.1437 0.49631,-1.14413 z m 2.39135,0 -0.49586,1.14413 0.49542,1.14325 0.49631,-1.14413 z m 2.39136,0 -0.49586,1.14413 0.49542,1.1437 0.4963,-1.14458 z m 2.39136,0 -0.49587,1.14413 0.49542,1.14325 0.49632,-1.14413 z m 2.39135,0 -0.49587,1.14413 0.49587,1.1437 0.49587,-1.14413 z m 2.39135,0 -0.49586,1.14413 0.49586,1.1437 0.49587,-1.14413 z m 2.39135,0 -0.49585,1.14413 0.49542,1.1437 0.4963,-1.14413 z m 2.391369,0 -0.495869,1.14413 0.495869,1.1437 0.495861,-1.14413 z m 2.391352,0 -0.495861,1.1437 0.495861,1.14413 0.495869,-1.1437 z m 2.39136,0 -0.495872,1.1437 0.496322,1.14413 0.495411,-1.1437 z m 2.391349,0 -0.495858,1.1437 0.495858,1.14368 0.495861,-1.14368 z m 2.39136,0 -0.495869,1.14325 0.495869,1.14458 0.495861,-1.1437 z m 2.391359,0 -0.495868,1.1437 0.4963,1.14413 0.49544,-1.1437 z m 2.391352,0 -0.495871,1.1437 0.496321,1.14413 0.495419,-1.1437 z m 2.391349,0 -0.495869,1.1437 0.495869,1.14413 0.495872,-1.1437 z m 2.391349,0 -0.495858,1.1437 0.495858,1.14413 0.495872,-1.1437 z m 2.391371,0 -0.495869,1.1437 0.495869,1.14413 0.495861,-1.1437 z m 9.565859,0 -0.495868,1.14413 0.495429,1.1437 0.496311,-1.14413 z m 2.391352,0 -0.49585,1.14413 0.495419,1.1437 0.4963,-1.14413 z m 2.39137,0 -0.495871,1.14413 0.495411,1.1437 0.496311,-1.14413 z m 2.391339,0 -0.495858,1.14413 0.495419,1.1437 0.4963,-1.14413 z m 2.39136,0 -0.495869,1.14413 0.495419,1.1437 0.496321,-1.14413 z m 2.391359,0 -0.495868,1.14413 0.495429,1.1437 0.496311,-1.14413 z m 2.391352,0 -0.495861,1.14413 0.495422,1.1437 0.496308,-1.14413 z m 2.39136,0 -0.495872,1.14413 0.495422,1.1437 0.496311,-1.14413 z m 2.391349,0 -0.49587,1.14413 0.49542,1.1437 0.49632,-1.14413 z m 2.39136,0 -0.49587,1.14413 0.49587,1.1437 0.49587,-1.14413 z m 2.39135,0 -0.49585,1.1437 0.4963,1.14413 0.49542,-1.1437 z m 2.39135,0 -0.49586,1.1437 0.49631,1.14413 0.49542,-1.1437 z m 2.39136,0 -0.49587,1.1437 0.49631,1.14413 0.49542,-1.1437 z m 2.39136,0 -0.49587,1.1437 0.49631,1.14413 0.49543,-1.1437 z m 2.39136,0 -0.49587,1.1437 0.49631,1.14413 0.49542,-1.1437 z m 2.39134,0 -0.49586,1.1437 0.49631,1.14413 0.49542,-1.1437 z m 2.39137,0 -0.49587,1.1437 0.4963,1.14413 0.49542,-1.1437 z m 2.39135,0 -0.49587,1.1437 0.49631,1.14413 0.49543,-1.1437 z m 2.39136,0 -0.49587,1.1437 0.49632,1.14413 0.49542,-1.1437 z m 9.56586,0 -0.49586,1.14413 0.49586,1.1437 0.49587,-1.14413 z m 2.39136,0 -0.49587,1.14413 0.49587,1.1437 0.49586,-1.14413 z m 2.39135,0 -0.49587,1.14413 0.49587,1.1437 0.49587,-1.14413 z m 2.39135,0 -0.49587,1.14413 0.49587,1.1437 0.49587,-1.14413 z m 2.39136,0 -0.49586,1.14413 0.49542,1.1437 0.49631,-1.14458 z m 4.78271,0 -0.49587,1.14413 0.49542,1.1437 0.49632,-1.14458 z m 4.78271,0 -0.49587,1.14413 0.49587,1.1437 0.49587,-1.14413 z m 2.39136,0 -0.49586,1.1437 0.49586,1.14413 0.49586,-1.1437 z m 2.39135,0 -0.49587,1.1437 0.49587,1.14413 0.49586,-1.1437 z m 2.39136,0 -0.49587,1.14325 0.49587,1.14458 0.49587,-1.1437 z m 2.39135,0 -0.49587,1.1437 0.49587,1.14413 0.49587,-1.1437 z m 2.39136,0 -0.49587,1.1437 0.49632,1.14413 0.49542,-1.1437 z m 4.78271,0 -0.49587,1.1437 0.49631,1.14413 0.49542,-1.1437 z m 2.39136,0 -0.49587,1.1437 0.49587,1.14368 0.49586,-1.14368 z m 2.39135,0 -0.49587,1.1437 0.49587,1.14413 0.49587,-1.1437 z m 11.95723,0 -0.49587,1.14413 0.49587,1.1437 0.49586,-1.14413 z m 4.7827,0 -0.0537,0.12398 c 0.0219,-0.0313 0.0455,-0.0624 0.0671,-0.0937 z m -162.61349,5.3e-4 -0.495869,1.14368 0.495419,1.1437 0.495871,-1.1437 z m 45.436191,0 -0.495861,1.14368 0.495422,1.1437 0.495868,-1.1437 z m 2.391359,0 -0.49586,1.14368 0.495411,1.1437 0.495869,-1.1437 z m 2.39135,0 -0.495869,1.14368 0.495419,1.1437 0.495871,-1.1437 z m 47.82756,0 -0.49587,1.14368 0.49587,1.1437 0.49541,-1.1437 z m 2.39134,0 -0.49586,1.14368 0.49586,1.1437 0.49543,-1.1437 z m 2.39136,0 -0.49587,1.14368 0.49587,1.1437 0.49542,-1.1437 z m 45.43575,0 -0.49541,1.14368 0.49586,1.1437 0.49542,-1.1437 z m 2.39136,0 -0.49543,1.14368 0.49587,1.1437 0.49542,-1.1437 z m 2.39136,0 -0.49542,1.14368 0.49542,1.14325 0.49587,-1.14368 z m -147.06925,2.75749 -0.49585,1.14456 0.49542,1.14325 0.4963,-1.14413 z m 23.913561,0 -0.495861,1.14368 0.495861,1.14459 0.495869,-1.14371 z m 86.089669,0 -0.49586,1.14456 0.49586,1.14371 0.49587,-1.14414 z m 4.78272,0 -0.49586,1.14456 0.49541,1.14371 0.49632,-1.14414 z m 16.73948,0 -0.49586,1.14413 0.49631,1.14414 0.49542,-1.14371 z m 19.13129,0 -0.49587,1.14456 0.49587,1.14371 0.49586,-1.14414 z m 2.39136,0 -0.49631,1.14413 0.1715,0.395 c 0.23842,-0.21248 0.47569,-0.42894 0.71048,-0.64916 z m -155.43943,5.3e-4 -0.495869,1.14414 0.495419,1.14371 0.49632,-1.14414 z m 4.78271,0 -0.49586,1.14414 0.49542,1.14371 0.49631,-1.14459 z m 2.39136,0 -0.49587,1.14414 0.49542,1.14371 0.49631,-1.14459 z m 2.39135,0 -0.49586,1.14414 0.49586,1.14371 0.49587,-1.14414 z m 2.39136,0 -0.49587,1.14414 0.49587,1.14371 0.49587,-1.14414 z m 2.39135,0 -0.49586,1.14414 0.49542,1.14371 0.49631,-1.14414 z m 2.391371,0 -0.495871,1.14414 0.495871,1.14371 0.495859,-1.14414 z m 2.391339,0 -0.495869,1.14414 0.495869,1.14414 0.495871,-1.14414 z m 2.39136,0 -0.495869,1.14371 0.49631,1.14414 0.49543,-1.14371 z m 2.391351,0 -0.495871,1.14371 0.495871,1.14414 0.495869,-1.14414 z m 4.782709,0 -0.495861,1.14371 0.496311,1.14414 0.495411,-1.14371 z m 2.39136,0 -0.495869,1.14371 0.496308,1.14414 0.495432,-1.14371 z m 2.391352,0 -0.495861,1.14371 0.496311,1.14414 0.495419,-1.14371 z m 2.391359,0 -0.49586,1.14371 0.49631,1.14414 0.495419,-1.14371 z m 2.39136,0 -0.495871,1.14371 0.49631,1.14414 0.495419,-1.14371 z m 11.957209,0 -0.495869,1.14414 0.495869,1.14371 0.495871,-1.14414 z m 2.39136,0 -0.495859,1.14414 0.495859,1.14371 0.495861,-1.14414 z m 2.391359,0 -0.495868,1.14414 0.495868,1.14371 0.495861,-1.14414 z m 2.391363,0 -0.495872,1.14414 0.495872,1.14371 0.495869,-1.14414 z m 2.391338,0 -0.495861,1.14414 0.495861,1.14371 0.495872,-1.14414 z m 2.39136,0 -0.495869,1.14414 0.495869,1.14371 0.495872,-1.14414 z m 2.391352,0 -0.495861,1.14414 0.495861,1.14371 0.495869,-1.14414 z m 2.391368,0 -0.495869,1.14414 0.495869,1.14371 0.49587,-1.14414 z m 2.39135,0 -0.49587,1.14414 0.49587,1.14414 0.49586,-1.14457 z m 2.39135,0 -0.49587,1.14414 0.49587,1.14414 0.49587,-1.14414 z m 2.39136,0 -0.49586,1.14371 0.49586,1.14414 0.49587,-1.14371 z m 2.39136,0 -0.49587,1.14371 0.49587,1.14414 0.49586,-1.14371 z m 2.39135,0 -0.49587,1.14371 0.49587,1.14414 0.49587,-1.14371 z m 2.39135,0 -0.49587,1.14371 0.49587,1.14414 0.49587,-1.14371 z m 2.39136,0 -0.49587,1.14371 0.49587,1.14414 0.49587,-1.14371 z m 2.39135,0 -0.49585,1.14371 0.49585,1.14414 0.49587,-1.14371 z m 2.39136,0 -0.49586,1.14371 0.49586,1.14414 0.49586,-1.14371 z m 2.39136,0 -0.49587,1.14371 0.49587,1.14414 0.49586,-1.14371 z m 11.95722,0 -0.49587,1.14414 0.49542,1.14371 0.49631,-1.14414 z m 2.39136,0 -0.49587,1.14414 0.49542,1.14371 0.49631,-1.14414 z m 2.39135,0 -0.49587,1.14414 0.49542,1.14371 0.49632,-1.14414 z m 2.39135,0 -0.49587,1.14414 0.49543,1.14371 0.49631,-1.14459 z m 4.78272,0 -0.49587,1.14414 0.49542,1.14371 0.49631,-1.14414 z m 4.7827,0 -0.49586,1.14414 0.49586,1.14371 0.49587,-1.14414 z m 2.39135,0 -0.49587,1.14414 0.49587,1.14414 0.49587,-1.14414 z m 2.39136,0 -0.49586,1.14371 0.49586,1.14414 0.49587,-1.14371 z m 2.39137,0 -0.49587,1.14371 0.49587,1.14414 0.49587,-1.14371 z m 2.39135,0 -0.49587,1.14371 0.49587,1.14414 0.49586,-1.14371 z m 2.39135,0 -0.49587,1.14371 0.49631,1.14414 0.49542,-1.14371 z m 4.78272,0 -0.49587,1.14371 0.4963,1.14414 0.49543,-1.14371 z m 2.39135,0 -0.49587,1.14371 0.49587,1.14414 0.49587,-1.14414 z m 2.39135,0 -0.49587,1.14371 0.49587,1.14414 0.49587,-1.14371 z m -145.87355,5.3e-4 -0.49587,1.14368 0.0902,0.2084 c 0.19466,0.17594 0.38986,0.34917 0.58562,0.51942 l 0.315481,-0.72782 z m 2.390901,0 -0.495421,1.14368 0.495871,1.14371 0.495419,-1.14371 z m 43.045279,0 -0.495859,1.14368 0.495859,1.14371 0.495432,-1.14371 z m 2.391359,0 -0.495869,1.14368 0.495869,1.14371 0.495433,-1.14371 z m 2.391363,0 -0.495872,1.14368 0.495872,1.14371 0.495419,-1.14371 z m 2.391359,0 -0.495871,1.14368 0.495871,1.14371 0.495409,-1.14371 z m 45.436189,0 -0.49587,1.14368 0.49542,1.14371 0.49587,-1.14371 z m 2.39135,0 -0.49587,1.14368 0.49543,1.14371 0.49587,-1.14371 z m 2.39136,0 -0.49587,1.14368 0.49543,1.14371 0.49585,-1.14371 z m 2.39135,0 -0.49586,1.14368 0.49542,1.14371 0.49587,-1.14371 z m 43.04439,0 -0.49542,1.14368 0.49587,1.14371 0.49542,-1.14371 z m 2.39136,0 -0.49542,1.14368 0.49587,1.14371 0.49542,-1.14371 z m 2.39136,0 -0.49543,1.14368 0.49543,1.14325 0.49586,-1.14368 z m 2.39135,0 -0.49541,1.14368 0.49541,1.14371 0.49587,-1.14414 z m -149.46059,2.75748 -0.49587,1.14457 0.49543,1.1437 0.49631,-1.14459 z m 2.39135,0 -0.49586,1.14457 0.49542,1.1437 0.49631,-1.14459 z m 11.95677,0 -0.49585,1.14457 0.49585,1.14414 0.49587,-1.14457 z m 2.391369,0 -0.495869,1.14457 0.495869,1.14414 0.495861,-1.14414 z m 7.174061,0 -0.495858,1.14368 0.495858,1.14459 0.495861,-1.1437 z m 86.08968,0 -0.49586,1.14457 0.49586,1.1437 0.49587,-1.14413 z m 4.78271,0 -0.49587,1.14457 0.49542,1.1437 0.49632,-1.14413 z m 16.73949,0 -0.49587,1.14414 0.49632,1.14413 0.49542,-1.1437 z m 4.78271,0 -0.49587,1.14414 0.49587,1.14413 0.49586,-1.14413 z m -131.52543,5.3e-4 -0.49586,1.14413 0.49542,1.1437 0.4963,-1.14459 z m 2.39136,0 -0.49587,1.14413 0.49587,1.14414 0.49587,-1.14457 z m 2.39135,0 -0.49587,1.14413 0.49587,1.14414 0.49587,-1.14457 z m 2.39135,0 -0.49586,1.14413 0.49542,1.1437 0.49631,-1.14413 z m 7.174071,0 -0.495861,1.14413 0.495861,1.14414 0.495869,-1.14414 z m 2.39136,0 -0.495872,1.1437 0.495872,1.14413 0.495861,-1.1437 z m 4.782709,0 -0.495869,1.1437 0.49631,1.14413 0.49542,-1.1437 z m 2.391359,0 -0.495868,1.1437 0.4963,1.14413 0.49544,-1.1437 z m 2.391352,0 -0.495871,1.1437 0.495871,1.14413 0.495869,-1.1437 z m 2.391349,0 -0.495869,1.1437 0.495869,1.14413 0.495872,-1.1437 z m 2.391349,0 -0.495858,1.1437 0.495858,1.14413 0.495872,-1.1437 z m 14.348582,0 -0.49585,1.14413 0.495419,1.1437 0.4963,-1.14413 z m 2.39137,0 -0.495871,1.14413 0.495411,1.1437 0.496311,-1.14413 z m 2.391339,0 -0.495858,1.14413 0.495419,1.1437 0.4963,-1.14413 z m 2.39136,0 -0.495869,1.14413 0.495419,1.1437 0.496321,-1.14413 z m 2.391359,0 -0.495868,1.14413 0.495429,1.1437 0.496311,-1.14413 z m 2.391352,0 -0.495861,1.14413 0.495422,1.1437 0.496308,-1.14413 z m 2.39136,0 -0.495871,1.14413 0.495421,1.1437 0.496311,-1.14413 z m 2.391349,0 -0.49587,1.14413 0.49587,1.14414 0.49587,-1.14414 z m 2.39136,0 -0.49587,1.14413 0.49587,1.14414 0.49587,-1.14414 z m 2.39135,0 -0.49585,1.14413 0.49585,1.14414 0.49587,-1.14414 z m 2.39135,0 -0.49586,1.1437 0.49631,1.14413 0.49542,-1.1437 z m 2.39136,0 -0.49587,1.1437 0.49631,1.14413 0.49542,-1.1437 z m 2.39136,0 -0.49587,1.1437 0.49631,1.14413 0.49543,-1.1437 z m 2.39136,0 -0.49587,1.1437 0.49631,1.14413 0.49542,-1.1437 z m 2.39134,0 -0.49586,1.1437 0.49631,1.14413 0.49542,-1.1437 z m 2.39137,0 -0.49587,1.1437 0.4963,1.14413 0.49542,-1.1437 z m 2.39135,0 -0.49587,1.1437 0.49631,1.14413 0.49543,-1.1437 z m 14.34858,0 -0.49587,1.14413 0.49587,1.1437 0.49586,-1.14413 z m 2.39135,0 -0.49587,1.14413 0.49587,1.1437 0.49587,-1.14413 z m 2.39135,0 -0.49587,1.14413 0.49544,1.1437 0.4963,-1.14413 z m 4.78273,0 -0.49587,1.14413 0.49541,1.1437 0.49631,-1.14413 z m 4.78269,0 -0.49586,1.14413 0.49586,1.1437 0.49587,-1.14413 z m 2.39136,0 -0.49587,1.14413 0.49587,1.14414 0.49587,-1.14414 z m 2.39136,0 -0.49586,1.14413 0.49586,1.14414 0.49586,-1.14414 z m 2.39135,0 -0.49587,1.1437 0.49587,1.14413 0.49586,-1.1437 z m 2.39136,0 -0.49587,1.1437 0.49587,1.14413 0.49587,-1.1437 z m 2.39135,0 -0.49587,1.1437 0.49632,1.14413 0.49542,-1.1437 z m 4.7827,0 -0.49585,1.1437 0.49631,1.14457 0.49587,-1.14414 z m 4.78273,0 -0.49587,1.1437 0.49587,1.14413 0.49586,-1.1437 z m 11.95677,0 -0.49587,1.1437 0.21594,0.49765 c 0.2392,-0.17675 0.49146,-0.36782 0.74736,-0.56342 z m -153.04807,5.3e-4 -0.495419,1.14369 0.19728,0.45545 c 0.158499,0.11739 0.30358,0.22246 0.45321,0.33103 l 0.3408,-0.78648 z m 40.653932,0 -0.495872,1.14369 0.49543,1.1437 0.495861,-1.1437 z m 2.391349,0 -0.495861,1.14369 0.495422,1.1437 0.495868,-1.1437 z m 2.391359,0 -0.49586,1.14369 0.495411,1.1437 0.495869,-1.1437 z m 2.39135,0 -0.495869,1.14369 0.495419,1.1437 0.495871,-1.1437 z m 2.391359,0 -0.495868,1.14369 0.495429,1.1437 0.495861,-1.1437 z m 43.044851,0 -0.49587,1.14369 0.49587,1.1437 0.49542,-1.1437 z m 2.39135,0 -0.49587,1.14369 0.49587,1.1437 0.49541,-1.1437 z m 2.39134,0 -0.49586,1.14369 0.49586,1.1437 0.49543,-1.1437 z m 2.39136,0 -0.49587,1.14369 0.49587,1.1437 0.49542,-1.1437 z m 2.39136,0 -0.49586,1.14369 0.49586,1.1437 0.49543,-1.1437 z m 40.65304,0 -0.49542,1.14369 0.49587,1.14414 0.49542,-1.14414 z m 2.3918,0 -0.49586,1.14369 0.49586,1.14414 0.49542,-1.14414 z m 2.39091,0 -0.49543,1.14369 0.49543,1.1437 0.49586,-1.14413 z m 2.39136,0 -0.49542,1.14369 0.49542,1.1437 0.49587,-1.1437 z m -147.06925,2.75749 -0.49585,1.14458 0.0449,0.10357 c 0.2283,0.167 0.45714,0.3378 0.6847,0.5003 l 0.26215,-0.60472 z m 11.95678,0 -0.49586,1.14458 0.49586,1.14412 0.49587,-1.14456 z m 2.391371,0 -0.495871,1.14458 0.495871,1.14412 0.495859,-1.14412 z m 7.17405,0 -0.495871,1.14369 0.495871,1.14459 0.495869,-1.14371 z m 86.089679,0 -0.49587,1.14458 0.49587,1.1437 0.49587,-1.14414 z m 4.78272,0 -0.49587,1.14458 0.49542,1.1437 0.49631,-1.14414 z m 9.56541,0 -0.49586,1.14458 0.49586,1.14412 0.49587,-1.14412 z m 2.39137,0 -0.49587,1.14414 0.49587,1.14414 0.49587,-1.14371 z m 4.7827,0 -0.49587,1.14414 0.49631,1.14414 0.49542,-1.14371 z m 4.78272,0 -0.49587,1.14414 0.49587,1.14414 0.49586,-1.14414 z m -131.52544,5.3e-4 -0.49586,1.14458 0.49542,1.14326 0.49631,-1.14459 z m 2.39136,0 -0.49587,1.14414 0.49587,1.14412 0.49586,-1.14456 z m 2.39135,0 -0.49586,1.14414 0.49586,1.14412 0.49587,-1.14456 z m 2.39136,0 -0.49587,1.14458 0.49543,1.14326 0.49631,-1.14414 z m 7.17406,0 -0.495869,1.14414 0.495869,1.14412 0.495871,-1.14412 z m 2.39136,0 -0.495869,1.14414 0.495869,1.14412 0.495871,-1.14412 z m 4.782711,0 -0.495861,1.1437 0.496311,1.14414 0.495419,-1.1437 z m 2.391349,0 -0.495861,1.1437 0.496311,1.14414 0.495411,-1.1437 z m 2.39136,0 -0.495869,1.1437 0.496308,1.14414 0.495432,-1.1437 z m 2.391352,0 -0.495861,1.1437 0.496311,1.14414 0.495419,-1.1437 z m 2.391359,0 -0.49586,1.1437 0.49631,1.14414 0.495419,-1.1437 z m 16.739929,0 -0.495859,1.14414 0.495859,1.1437 0.495861,-1.14414 z m 2.391359,0 -0.495868,1.14414 0.495868,1.1437 0.495861,-1.14414 z m 2.391363,0 -0.495872,1.14414 0.495872,1.1437 0.495869,-1.14414 z m 2.391338,0 -0.495861,1.14414 0.495861,1.1437 0.495872,-1.14414 z m 2.39136,0 -0.495869,1.14414 0.495869,1.1437 0.495872,-1.14414 z m 2.391352,0 -0.495861,1.14414 0.495861,1.1437 0.495869,-1.14414 z m 2.391368,0 -0.495869,1.14414 0.495869,1.14412 0.49587,-1.14412 z m 2.39135,0 -0.49587,1.14414 0.49587,1.14412 0.49586,-1.14412 z m 2.39135,0 -0.49587,1.14414 0.49587,1.14412 0.49587,-1.14412 z m 2.39136,0 -0.49586,1.14414 0.49586,1.14412 0.49587,-1.14412 z m 2.39136,0 -0.49587,1.1437 0.49587,1.14414 0.49586,-1.1437 z m 2.39135,0 -0.49587,1.1437 0.49587,1.14414 0.49587,-1.1437 z m 2.39135,0 -0.49587,1.1437 0.49587,1.14414 0.49587,-1.1437 z m 2.39136,0 -0.49587,1.1437 0.49587,1.14414 0.49587,-1.1437 z m 2.39135,0 -0.49585,1.1437 0.49585,1.14414 0.49587,-1.1437 z m 2.39136,0 -0.49586,1.1437 0.49586,1.14414 0.49586,-1.1437 z m 16.73994,0 -0.49587,1.14414 0.49542,1.1437 0.49631,-1.14414 z m 2.39135,0 -0.49587,1.14414 0.49542,1.1437 0.49632,-1.14414 z m 4.7827,0 -0.49586,1.14414 0.49542,1.1437 0.49631,-1.14414 z m 4.78272,0 -0.49586,1.14414 0.49586,1.1437 0.49587,-1.14414 z m 2.39135,0 -0.49586,1.14414 0.49586,1.14412 0.49587,-1.14412 z m 2.39135,0 -0.49587,1.14414 0.49587,1.14412 0.49587,-1.14412 z m 7.17408,0 -0.49587,1.1437 0.49632,1.14414 0.49541,-1.1437 z m 4.7827,0 -0.49586,1.1437 0.49631,1.14456 0.49587,-1.14412 z m 4.78272,0 -0.49587,1.1437 0.49587,1.14414 0.49587,-1.1437 z m 2.39135,0 -0.49542,1.14414 0.49587,1.14412 0.49585,-1.14412 z m 4.78271,0 -0.49586,1.14414 0.49586,1.1437 0.49587,-1.14414 z m -107.61143,5.2e-4 -0.49586,1.14368 0.49586,1.14371 0.495419,-1.14371 z m 2.39135,0 -0.495859,1.14368 0.495859,1.14371 0.495432,-1.14371 z m 2.391359,0 -0.495869,1.14368 0.495869,1.14371 0.495433,-1.14371 z m 2.391363,0 -0.495872,1.14368 0.495872,1.14371 0.495419,-1.14371 z m 2.391359,0 -0.495871,1.14368 0.495871,1.14371 0.495409,-1.14371 z m 2.391339,0 -0.495869,1.14368 0.495869,1.14371 0.495422,-1.14371 z m 40.65348,0 -0.49585,1.14368 0.49542,1.14371 0.49586,-1.14371 z m 2.39137,0 -0.49587,1.14368 0.49542,1.14371 0.49587,-1.14371 z m 2.39135,0 -0.49587,1.14368 0.49543,1.14371 0.49587,-1.14371 z m 2.39136,0 -0.49587,1.14368 0.49543,1.14371 0.49585,-1.14371 z m 2.39135,0 -0.49586,1.14368 0.49542,1.14371 0.49587,-1.14371 z m 2.39136,0 -0.49587,1.14368 0.49542,1.14371 0.49587,-1.14371 z m 40.65348,0 -0.49587,1.14368 0.49587,1.14413 0.49587,-1.14413 z m 4.78227,0 -0.49543,1.14368 0.13596,0.31372 c 0.25084,-0.18165 0.50149,-0.36343 0.75314,-0.55054 z m -135.11247,2.75748 -0.4963,1.14457 0.4963,1.14414 0.49587,-1.14457 z m 2.39135,0 -0.4963,1.14457 0.4963,1.14459 0.49587,-1.14459 z m 7.174081,0 -0.496322,1.14457 0.496322,1.14414 0.495861,-1.14414 z m 2.391349,0 -0.495858,1.14414 0.496297,1.14457 0.495422,-1.14414 z m 83.69832,0 -0.49587,1.14457 0.49587,1.14414 0.49587,-1.14457 z m 2.39136,0 -0.49586,1.14457 0.49542,1.1437 0.49631,-1.14413 z m 2.39137,0 -0.49587,1.14457 0.49541,1.1437 0.49631,-1.14413 z m 4.78269,0 -0.49586,1.14457 0.49586,1.14459 0.49587,-1.14459 z m 4.78272,0 -0.49586,1.14457 0.49586,1.14459 0.49586,-1.14459 z m 2.39135,0 -0.49587,1.14457 0.49587,1.14459 0.49586,-1.14459 z m 4.78271,0 -0.49587,1.14414 0.49632,1.14457 0.49542,-1.14414 z m 4.7827,0 -0.49585,1.14414 0.49585,1.14413 0.49587,-1.14413 z m -129.13406,5.3e-4 -0.42255,0.97484 c 0.25944,0.16718 0.51903,0.3348 0.77668,0.49632 l 0.14173,-0.32703 z m 2.39136,0 -0.49587,1.14413 0.49587,1.14414 0.49587,-1.14457 z m 2.39135,0 -0.49587,1.14459 0.49542,1.14324 0.49632,-1.14413 z m 7.174069,0 -0.495869,1.14413 0.495869,1.14459 0.495861,-1.14459 z m 2.391352,0 -0.495861,1.14413 0.495861,1.14414 0.495869,-1.14414 z m 7.174069,0 -0.495869,1.1437 0.49631,1.14457 0.495869,-1.14414 z m 2.391359,0 -0.495868,1.1437 0.495868,1.14413 0.495872,-1.1437 z m 2.391352,0 -0.495871,1.1437 0.495871,1.14413 0.495869,-1.1437 z m 2.391349,0 -0.495869,1.1437 0.495869,1.14413 0.495872,-1.1437 z m 19.131301,0 -0.495871,1.14413 0.495411,1.1437 0.496311,-1.14413 z m 2.391339,0 -0.495858,1.14413 0.495419,1.1437 0.4963,-1.14413 z m 2.39136,0 -0.495869,1.14413 0.495419,1.1437 0.496321,-1.14413 z m 2.391359,0 -0.495868,1.14413 0.495429,1.1437 0.496311,-1.14413 z m 2.391352,0 -0.495861,1.14413 0.495422,1.1437 0.496308,-1.14413 z m 2.39136,0 -0.495871,1.14413 0.495871,1.14414 0.495861,-1.14414 z m 2.391349,0 -0.49587,1.14413 0.49587,1.14459 0.49587,-1.14459 z m 2.39136,0 -0.49587,1.14413 0.49587,1.14459 0.49587,-1.14459 z m 2.39135,0 -0.49585,1.14413 0.49585,1.14459 0.49587,-1.14459 z m 2.39135,0 -0.49586,1.14413 0.49586,1.14414 0.49587,-1.14414 z m 2.39136,0 -0.49587,1.1437 0.49631,1.14413 0.49542,-1.1437 z m 2.39136,0 -0.49587,1.1437 0.49631,1.14413 0.49543,-1.1437 z m 2.39136,0 -0.49587,1.1437 0.49631,1.14413 0.49542,-1.1437 z m 2.39134,0 -0.49586,1.1437 0.49631,1.14413 0.49542,-1.1437 z m 2.39137,0 -0.49587,1.1437 0.4963,1.14413 0.49542,-1.1437 z m 19.13128,0 -0.49587,1.14413 0.49542,1.1437 0.49632,-1.14413 z m 9.56542,0 -0.49587,1.14413 0.49587,1.14414 0.49587,-1.14457 z m 4.78271,0 -0.49587,1.14413 0.49587,1.14459 0.49587,-1.14459 z m 7.17407,0 -0.49587,1.1437 0.4963,1.14457 0.49544,-1.14414 z m 4.78271,0 -0.49587,1.1437 0.49632,1.14457 0.49587,-1.14414 z m 4.78271,0 -0.49587,1.1437 0.49587,1.14413 0.49586,-1.1437 z m 2.39136,0 -0.49587,1.14413 0.4963,1.14414 0.49587,-1.14414 z m 4.7827,0 -0.49586,1.14413 0.0285,0.0653 c 0.25849,-0.16443 0.51646,-0.32668 0.77667,-0.49677 z m -107.611431,5.2e-4 -0.495869,1.14368 0.495419,1.14371 0.495872,-1.14371 z m 2.391363,0 -0.495872,1.14368 0.49543,1.14371 0.495861,-1.14371 z m 2.391349,0 -0.495861,1.14368 0.495422,1.14371 0.495868,-1.14371 z m 2.391359,0 -0.49586,1.14368 0.495411,1.14371 0.495869,-1.14371 z m 2.39135,0 -0.495869,1.14368 0.495419,1.14371 0.495871,-1.14371 z m 2.391359,0 -0.495868,1.14368 0.495429,1.14371 0.495861,-1.14371 z m 2.391352,0 -0.49585,1.14368 0.495419,1.14371 0.49585,-1.14371 z m 38.262129,0 -0.49586,1.14368 0.49586,1.14371 0.49543,-1.14371 z m 2.39137,0 -0.49587,1.14368 0.49587,1.14371 0.49542,-1.14371 z m 2.39135,0 -0.49587,1.14368 0.49587,1.14371 0.49541,-1.14371 z m 2.39134,0 -0.49586,1.14368 0.49586,1.14371 0.49543,-1.14371 z m 2.39136,0 -0.49587,1.14368 0.49587,1.14371 0.49542,-1.14371 z m 2.39136,0 -0.49586,1.14368 0.49586,1.14371 0.49543,-1.14371 z m 2.39136,0 -0.49587,1.14368 0.49587,1.14371 0.49542,-1.14371 z m 38.26213,0 -0.49587,1.14368 0.49587,1.14414 0.49586,-1.14414 z m -130.3302,2.75748 -0.49631,1.14458 0.28081,0.64783 c 0.11764,0.0605 0.23546,0.12102 0.35235,0.1804 l 0.35902,-0.82867 z m 2.39135,0 -0.4963,1.14458 0.4963,1.14458 0.49587,-1.14458 z m 7.17407,0 -0.496308,1.14458 0.496308,1.14458 0.495871,-1.14458 z m 2.391351,0 -0.495871,1.14458 0.495871,1.14458 0.496319,-1.14458 z m 83.698329,0 -0.49631,1.14458 0.49631,1.14413 0.49587,-1.14457 z m 2.39135,0 -0.49587,1.14458 0.49543,1.14413 0.49631,-1.14457 z m 2.39135,0 -0.4963,1.14458 0.49586,1.14413 0.49631,-1.14457 z m 2.39137,0 -0.49587,1.14458 0.49587,1.14413 0.49586,-1.14457 z m 2.39135,0 -0.49586,1.14458 0.49586,1.14458 0.49587,-1.14458 z m 4.7827,0 -0.49587,1.14458 0.49587,1.14458 0.49587,-1.14458 z m 2.39136,0 -0.49586,1.14458 0.49586,1.14458 0.49587,-1.14458 z m 4.78272,0 -0.49587,1.14414 0.49632,1.14457 0.49586,-1.14413 z m 4.7827,0 -0.49586,1.14414 0.49586,1.14414 0.49587,-1.1437 z m -124.35136,5.3e-4 -0.21771,0.50254 c 0.19217,0.10813 0.38477,0.21712 0.57539,0.32213 z m 7.174081,0 -0.495871,1.14414 0.495871,1.14459 0.495859,-1.14459 z m 2.391339,0 -0.495869,1.14414 0.495869,1.14413 0.495871,-1.14413 z m 7.174071,0 -0.495861,1.14371 0.496311,1.14456 0.495858,-1.14413 z m 2.391349,0 -0.495861,1.14371 0.496311,1.14456 0.495411,-1.14413 z m 2.39136,0 -0.495869,1.14371 0.496308,1.14456 0.495432,-1.14413 z m 2.391352,0 -0.495861,1.14371 0.496311,1.14456 0.495419,-1.14413 z m 21.522647,0 -0.495868,1.14414 0.495868,1.14413 0.495861,-1.14456 z m 2.391363,0 -0.495872,1.14414 0.495872,1.14413 0.495869,-1.14456 z m 2.391338,0 -0.495861,1.14414 0.495861,1.14413 0.495872,-1.14456 z m 2.39136,0 -0.495869,1.14414 0.495869,1.14413 0.495872,-1.14456 z m 2.391352,0 -0.495861,1.14414 0.495861,1.14459 0.495869,-1.14459 z m 2.391368,0 -0.495869,1.14414 0.495869,1.14459 0.49587,-1.14459 z m 2.39135,0 -0.49587,1.14414 0.49587,1.14459 0.49586,-1.14459 z m 2.39135,0 -0.49587,1.14414 0.49587,1.14459 0.49587,-1.14459 z m 2.39136,0 -0.49586,1.14414 0.49586,1.14459 0.49587,-1.14459 z m 2.39136,0 -0.49587,1.14414 0.49587,1.14459 0.49586,-1.14459 z m 2.39135,0 -0.49587,1.14371 0.49587,1.14456 0.49587,-1.14413 z m 2.39135,0 -0.49587,1.14371 0.49587,1.14456 0.49587,-1.14413 z m 2.39136,0 -0.49587,1.14371 0.49587,1.14456 0.49587,-1.14413 z m 2.39135,0 -0.49585,1.14371 0.49585,1.14456 0.49587,-1.14413 z m 33.47942,0 -0.49586,1.14414 0.49586,1.14459 0.49587,-1.14459 z m 7.17408,0 -0.49587,1.14414 0.49587,1.14459 0.4963,-1.14459 z m 4.7827,0 -0.49587,1.14371 0.49631,1.14456 0.49586,-1.14413 z m 4.78272,0 -0.49587,1.14371 0.49587,1.14456 0.49586,-1.14413 z m 2.39135,0 -0.49587,1.14414 0.26393,0.60872 c 0.19907,-0.10274 0.39826,-0.20526 0.5994,-0.31146 l 0.12885,-0.29681 z m -102.828719,5.3e-4 -0.495871,1.14368 0.495871,1.14413 0.495419,-1.14413 z m 2.391349,0 -0.49586,1.14368 0.49586,1.14413 0.495419,-1.14413 z m 2.39135,0 -0.495859,1.14368 0.495859,1.14413 0.495432,-1.14413 z m 2.391359,0 -0.495869,1.14368 0.495869,1.14413 0.495433,-1.14413 z m 2.391363,0 -0.495872,1.14368 0.495872,1.14413 0.495419,-1.14413 z m 2.391359,0 -0.495871,1.14368 0.495871,1.14413 0.495409,-1.14413 z m 2.391339,0 -0.495869,1.14368 0.495869,1.14413 0.495422,-1.14413 z m 2.39136,0 -0.495859,1.14368 0.495859,1.14413 0.495432,-1.14413 z m 35.87078,0 -0.49587,1.14368 0.49542,1.14413 0.49586,-1.14413 z m 2.39134,0 -0.49585,1.14368 0.49542,1.14413 0.49586,-1.14413 z m 2.39137,0 -0.49587,1.14368 0.49542,1.14413 0.49587,-1.14413 z m 2.39135,0 -0.49587,1.14368 0.49543,1.14413 0.49587,-1.14413 z m 2.39136,0 -0.49587,1.14368 0.49543,1.14413 0.49585,-1.14413 z m 2.39135,0 -0.49586,1.14368 0.49542,1.14413 0.49587,-1.14413 z m 2.39136,0 -0.49587,1.14368 0.49542,1.14413 0.49587,-1.14413 z m 2.39136,0 -0.49587,1.14368 0.49542,1.14413 0.49587,-1.14413 z m 35.87077,0 -0.18973,0.43722 c 0.10202,-0.0576 0.20236,-0.11254 0.30481,-0.17107 z m -120.764779,2.75747 -0.4963,1.14457 0.4963,1.14458 0.495869,-1.14458 z m 2.39136,0 -0.496322,1.14457 0.496322,1.14458 0.49631,-1.14458 z m 2.391349,0 -0.496311,1.14457 0.496311,1.14458 0.496311,-1.14458 z m 2.39136,0 -0.495869,1.14415 0.495869,1.14456 0.49631,-1.14414 z m 2.391359,0 -0.495868,1.14415 0.495868,1.14456 0.4963,-1.14414 z m 2.391352,0 -0.495871,1.14415 0.495871,1.14456 0.496308,-1.14414 z m 23.913989,0 -0.496308,1.14457 0.495869,1.14414 0.4963,-1.14456 z m 2.39136,0 -0.496308,1.14457 0.495858,1.14414 0.496321,-1.14456 z m 2.391359,0 -0.496308,1.14457 0.495869,1.14414 0.496311,-1.14456 z m 2.391352,0 -0.49631,1.14457 0.49631,1.14458 0.495869,-1.14458 z m 2.39136,0 -0.496321,1.14457 0.496321,1.14458 0.4963,-1.14458 z m 2.391349,0 -0.49631,1.14457 0.49631,1.14458 0.49631,-1.14458 z m 2.39136,0 -0.49631,1.14457 0.49631,1.14458 0.4963,-1.14458 z m 2.39135,0 -0.49631,1.14457 0.49631,1.14458 0.49632,-1.14458 z m 2.39135,0 -0.49631,1.14457 0.49631,1.14458 0.49632,-1.14458 z m 2.39136,0 -0.49587,1.14457 0.49587,1.14458 0.49631,-1.14458 z m 2.39136,0 -0.49587,1.14415 0.49631,1.14456 0.49587,-1.14414 z m 2.39136,0 -0.49587,1.14415 0.49631,1.14456 0.49586,-1.14414 z m 2.39134,0 -0.49586,1.14415 0.49631,1.14456 0.49587,-1.14414 z m 23.914,0 -0.4963,1.14457 0.49587,1.14414 0.4963,-1.14456 z m 2.39136,0 -0.49631,1.14457 0.49587,1.14414 0.49631,-1.14456 z m 2.39137,0 -0.49633,1.14457 0.49633,1.14414 0.49585,-1.14456 z m 2.39134,0 -0.49632,1.14457 0.49632,1.14458 0.49631,-1.14458 z m 2.39135,0 -0.4963,1.14457 0.4963,1.14458 0.49631,-1.14458 z m 2.39136,0 -0.4963,1.14457 0.4963,1.14458 0.49632,-1.14458 z m 2.39136,0 -0.49631,1.14457 0.49631,1.14458 0.49631,-1.14458 z m 2.39135,0 -0.49631,1.14457 0.49631,1.14458 0.49631,-1.14458 z m 2.39136,0 -0.49632,1.14457 0.49632,1.14458 0.4963,-1.14458 z m 4.78271,0 -0.49587,1.14415 0.26127,0.60248 c 0.18812,-0.0761 0.37952,-0.15541 0.57139,-0.23504 l 0.15908,-0.36702 z m -117.17731,5.3e-4 -0.31013,0.71535 c 0.25839,0.11592 0.51489,0.23002 0.7678,0.33991 z m 2.391369,0 -0.495869,1.14412 0.27237,0.62873 c 0.128921,0.052 0.254151,0.10118 0.381241,0.15151 l 0.338119,-0.78024 z m 112.394581,0 -0.49587,1.1437 0.49632,1.14456 0.49586,-1.14369 z m 4.7827,0 -0.33367,0.77001 c 0.1854,-0.0828 0.37036,-0.1651 0.55851,-0.25104 z m -100.43735,5.3e-4 -0.496319,1.14368 0.495869,1.14414 0.496311,-1.14414 z m 2.391349,0 -0.496308,1.14368 0.495858,1.14414 0.496322,-1.14414 z m 2.391363,0 -0.496311,1.14368 0.495869,1.14414 0.49631,-1.14414 z m 2.391349,0 -0.4963,1.14368 0.495861,1.14414 0.496308,-1.14414 z m 2.391359,0 -0.496318,1.14368 0.495869,1.14414 0.49631,-1.14414 z m 2.39135,0 -0.4963,1.14368 0.49585,1.14414 0.496321,-1.14414 z m 2.391359,0 -0.496308,1.14368 0.495869,1.14414 0.496311,-1.14414 z m 2.391352,0 -0.4963,1.14368 0.495869,1.14414 0.4963,-1.14414 z m 2.39137,0 -0.496331,1.14368 0.495871,1.14414 0.496311,-1.14414 z m 33.479399,0 -0.4963,1.14368 0.4963,1.14414 0.49587,-1.14414 z m 2.39136,0 -0.49631,1.14368 0.49631,1.14414 0.49587,-1.14414 z m 2.39137,0 -0.49632,1.14368 0.49632,1.14414 0.49586,-1.14414 z m 2.39135,0 -0.49632,1.14368 0.49632,1.14414 0.49586,-1.14414 z m 2.39134,0 -0.4963,1.14368 0.4963,1.14414 0.49587,-1.14414 z m 2.39136,0 -0.49631,1.14368 0.49631,1.14414 0.49587,-1.14414 z m 2.39136,0 -0.49631,1.14368 0.49631,1.14414 0.49587,-1.14414 z m 2.39136,0 -0.49632,1.14368 0.49587,1.14414 0.49631,-1.14414 z m 2.3909,0 -0.49587,1.14368 0.49632,1.14414 0.49587,-1.14414 z m -84.89355,2.75749 -0.159071,0.36701 c 0.126432,0.0426 0.2481,0.0819 0.371452,0.12262 z m 2.391351,0 -0.42655,0.98418 0.35502,0.15417 c 0.0282,0.007 0.0579,0.0169 0.0857,0.025 l 0.412329,-0.17905 z m 2.39136,0 -0.426551,0.98418 0.426551,0.18527 0.426548,-0.18527 z m 2.391349,0 -0.42655,0.98418 0.42655,0.18572 0.426561,-0.18572 z m 2.39136,0 -0.42654,0.98418 0.42654,0.18572 0.426551,-0.18572 z m 26.305362,0 -0.426561,0.98418 0.426561,0.18572 0.42654,-0.18572 z m 2.391338,0 -0.42654,0.98418 0.42654,0.18572 0.426562,-0.18572 z m 2.39136,0 -0.426548,0.98418 0.426548,0.18527 0.426551,-0.18527 z m 2.391352,0 -0.426551,0.98418 0.426551,0.18527 0.426558,-0.18527 z m 2.391368,0 -0.426548,0.98418 0.426548,0.18527 0.42654,-0.18527 z m 2.39135,0 -0.42655,0.98418 0.42655,0.18527 0.42655,-0.18527 z m 2.39135,0 -0.42654,0.98418 0.42654,0.18527 0.42655,-0.18527 z m 2.39136,0 -0.42656,0.98418 0.42656,0.18527 0.42656,-0.18527 z m 2.39136,0 -0.42656,0.98418 0.42656,0.18527 0.42655,-0.18527 z m 2.39135,0 -0.42655,0.98418 0.42655,0.18527 0.42655,-0.18527 z m 2.39135,0 -0.42654,0.98418 0.42654,0.18572 0.42656,-0.18572 z m 2.39136,0 -0.42655,0.98418 0.42655,0.18572 0.42655,-0.18572 z m 26.30535,0 -0.42655,0.98418 0.42655,0.18572 0.42655,-0.18572 z m 2.39135,0 -0.42654,0.98418 0.42654,0.18572 0.42657,-0.18572 z m 2.39137,0 -0.42656,0.98418 0.42656,0.18527 0.42655,-0.18527 z m 2.39135,0 -0.42655,0.98418 0.42655,0.18527 0.42655,-0.18527 z m 2.39135,0 -0.42655,0.98418 0.42655,0.18527 0.42655,-0.18527 z m 2.39135,0 -0.42654,0.98418 0.42654,0.18527 0.42657,-0.18527 z m 2.39136,0 -0.42655,0.98418 0.42655,0.18527 0.42656,-0.18527 z m 2.39137,0 -0.42657,0.98418 0.20261,0.0879 c 0.20543,-0.0601 0.39293,-0.11148 0.61139,-0.17817 z m -21.52265,5.3e-4 -0.42611,0.98375 0.42611,0.18528 0.42654,-0.18528 z m 2.39135,0 -0.4261,0.98375 0.4261,0.18528 0.42656,-0.18528 z m 21.52265,0 -0.12308,0.28393 c 0.0709,-0.0242 0.14227,-0.0489 0.21417,-0.0738 z m -95.654658,5.3e-4 -0.426562,0.98329 0.426562,0.18528 0.426098,-0.18528 z m 2.391359,0 -0.426561,0.98329 0.426561,0.18528 0.426091,-0.18528 z m 2.391349,0 -0.42655,0.98329 0.42655,0.18528 0.426109,-0.18528 z m 2.39135,0 -0.426548,0.98329 0.426548,0.18528 0.426122,-0.18528 z m 2.391359,0 -0.426548,0.98329 0.426548,0.18528 0.426112,-0.18528 z m 2.391363,0 -0.426551,0.98329 0.426551,0.18528 0.426098,-0.18528 z m 2.391359,0 -0.426561,0.98329 0.426561,0.18528 0.426099,-0.18528 z m 2.391339,0 -0.42654,0.98329 0.42654,0.18528 0.426119,-0.18528 z m 2.39136,0 -0.426548,0.98329 0.426548,0.18528 0.426111,-0.18528 z m 2.391359,0 -0.426558,0.98329 0.426558,0.18528 0.426101,-0.18528 z m 31.088061,0 -0.42655,0.98329 0.4261,0.18528 0.42656,-0.18528 z m 2.39136,0 -0.42656,0.98329 0.42611,0.18528 0.42655,-0.18528 z m 2.39134,0 -0.42654,0.98329 0.42611,0.18528 0.42655,-0.18528 z m 2.39137,0 -0.42656,0.98329 0.42611,0.18528 0.42655,-0.18528 z m 2.39135,0 -0.42655,0.98329 0.42611,0.18528 0.42655,-0.18528 z m 2.39136,0 -0.42656,0.98329 0.42612,0.18528 0.42655,-0.18528 z m 2.39135,0 -0.42655,0.98329 0.42611,0.18528 0.42655,-0.18528 z m 2.39136,0 -0.42655,0.98329 0.4261,0.18528 0.42656,-0.18528 z"
       id="path2346"
       inkscape:connector-curvature="0" />
  </g>
</svg>
